<svg width="128" height="128" viewBox="0 0 128 128" fill="none" xmlns="http://www.w3.org/2000/svg">
<g clip-path="url(#clip0_392_14)">
<path d="M87 52.4002C79.5 53.3002 79.5 61.6002 79.5 61.6002H94.4C94.5 61.6002 95.2 52.4002 87 52.4002ZM38.2 63.1002H51L44.5999 38.7002L38.2 63.1002Z" fill="#7C4B4B"/>
<path d="M0 0V128H128V0H0ZM57.5 88.6L53 72.5H36.2L31.8 88.6H22.4L38.4 33.7V29.9H50.6L67.9 88.6H57.5ZM103.5 69H79.5C81.4 88.2 100.7 79 100.7 79V87C100.7 87 99.4 89.6 85.9 89.6C72.4 89.6 69.6 71.3 69.6 71.3V66.6C69.6 66.6 70.9 44.6 86.9 44.6C102.9 44.6 103.4 59.2 103.4 59.2V69H103.5Z" fill="#7C4B4B"/>
</g>
<defs>
<clipPath id="clip0_392_14">
<rect width="128" height="128" fill="white"/>
</clipPath>
</defs>
</svg>
