<svg width="128" height="128" viewBox="0 0 128 128" fill="none" xmlns="http://www.w3.org/2000/svg">
<g clip-path="url(#clip0_370_14472)">
<path d="M56.813 127.586C54.91 127.359 52.914 127.066 52.379 126.934C51.5917 126.747 50.7997 126.58 50.004 126.434C49.0952 126.257 48.1935 126.046 47.301 125.801C43.156 124.613 42.859 124.516 39.734 123.238C36.859 122.066 31.562 119.328 29.75 118.082C29.254 117.738 28.79 117.461 28.719 117.461C28.649 117.461 27.489 116.645 26.141 115.648C17.571 109.305 11.137 101.605 6.488 92.1207C5.688 90.4917 5.035 89.0467 5.035 88.9107C5.035 88.7767 4.891 88.4057 4.715 88.0937C4.352 87.4447 3.835 86.0467 3.418 84.6017C3.23871 83.9877 3.03014 83.3827 2.793 82.7887C2.598 82.3287 2.441 81.7687 2.441 81.5427C2.441 81.3157 2.246 80.5777 2.008 79.8977C1.77 79.2227 1.578 78.4257 1.578 78.1277C1.578 77.8317 1.391 76.8077 1.16 75.8517C0.598 73.4917 0 67.3787 0 63.9527C0 60.5307 0.598 54.4177 1.16 52.0587C1.39 51.1017 1.578 50.0587 1.578 49.7387C1.578 49.4177 1.723 48.7887 1.898 48.3387C2.078 47.8907 2.308 47.0857 2.414 46.5507C2.524 46.0157 2.774 45.0937 2.977 44.4957L3.567 42.7697C4 41.4767 4.402 40.3827 4.594 39.9567C4.704 39.7187 5.133 38.7467 5.551 37.7967C6.227 36.2617 7.676 33.3667 8.523 31.8517C8.832 31.2967 8.949 31.1127 10.621 28.4997C13.27 24.3517 17.797 19.1907 22.011 15.5117C23.496 14.2147 28.457 10.4487 28.68 10.4487C28.742 10.4487 29.21 10.1677 29.723 9.82366C31.07 8.92166 32.391 8.15566 34.113 7.29266C34.7311 6.98696 35.3433 6.66923 35.949 6.33966C36.234 6.17566 36.769 5.92966 39.516 4.69966C40.121 4.42966 40.773 4.18366 42.652 3.52666C43.066 3.38266 43.898 3.07766 44.492 2.85466C45.09 2.63266 45.793 2.44866 46.055 2.44866C46.313 2.44866 46.992 2.26866 47.563 2.04666C48.133 1.82366 49.168 1.56966 49.867 1.48366C50.563 1.40166 51.488 1.20666 51.922 1.05366C52.352 0.905664 53.532 0.713664 54.543 0.628664C55.8607 0.509616 57.1748 0.354558 58.484 0.163664C61.172 -0.230336 67.016 -0.230336 69.676 0.163664C70.9324 0.343958 72.1931 0.492339 73.457 0.608664C74.41 0.687664 75.625 0.886664 76.16 1.05066C76.695 1.21066 77.621 1.41066 78.215 1.48366C78.809 1.56266 79.809 1.80866 80.437 2.03466C81.067 2.26466 81.781 2.44866 82.027 2.44866C82.273 2.44866 82.781 2.58566 83.152 2.75766C83.527 2.92566 84.32 3.20666 84.918 3.38266C85.512 3.56266 86.531 3.91766 87.188 4.17966C87.84 4.44066 88.715 4.78466 89.133 4.94066C89.903 5.23066 95.593 8.07766 96.367 8.56266C102.648 12.4797 105.879 15.0387 110.223 19.5267C115.461 24.9407 118.938 30.0967 122.477 37.6867C122.727 38.2227 123.109 39.0157 123.328 39.4447C123.543 39.8787 123.723 40.3867 123.723 40.5747C123.723 40.7647 123.903 41.3347 124.125 41.8437C124.727 43.2267 125.242 44.8007 125.485 46.0037C125.605 46.5937 125.828 47.3237 125.98 47.6247C126.133 47.9247 126.312 48.6877 126.383 49.3127C126.453 49.9367 126.66 50.9607 126.836 51.5817C127.856 55.1127 128.363 65.5157 127.746 70.1167C127.563 71.4837 127.356 73.1367 127.286 73.7887C127.168 74.9057 126.578 77.7927 126.074 79.7337L125.554 81.7887C124.574 85.7457 122.152 91.3827 119.195 96.5977C118.023 98.6677 114.094 104.266 113.352 104.922C113.285 104.98 112.953 105.372 112.617 105.785C112.281 106.203 111.203 107.371 110.227 108.379C105.926 112.82 102.457 115.566 96.367 119.348C95.645 119.797 89.52 122.789 88.375 123.254C87.781 123.492 86.789 123.894 86.172 124.144C85.559 124.391 84.875 124.598 84.66 124.602C84.445 124.605 83.879 124.797 83.402 125.027C82.926 125.257 82.32 125.449 82.051 125.453C81.785 125.457 81.008 125.645 80.324 125.871C79.641 126.101 78.691 126.348 78.214 126.421C77.738 126.496 76.719 126.699 75.945 126.871C75.172 127.043 72.835 127.379 70.758 127.617C66.1248 128.157 61.4438 128.147 56.813 127.586ZM61.516 115.086C61.816 114.852 62.125 114.386 62.207 114.059C62.387 113.336 91.441 55.0887 91.988 54.3587C92.449 53.7417 92.492 52.7537 92.07 52.4057C91.848 52.2187 89.066 52.1597 81.64 52.1717C76.07 52.1837 71.387 52.1877 71.234 52.1837C71.008 52.1757 70.961 48.4537 70.984 32.5117C71 21.6947 70.949 12.7457 70.871 12.6217C70.793 12.4957 70.488 12.3947 70.191 12.3947C69.773 12.3947 69.578 12.5747 69.321 13.2027C68.836 14.3707 67.496 17.0227 60.973 29.6877C59.6181 32.316 58.2664 34.946 56.918 37.5777C55.762 39.8397 53.938 43.3907 52.871 45.4677C49.999 51.0509 47.133 56.6372 44.273 62.2267C39.34 71.8627 38.743 73.0117 38.531 73.2657C38.121 73.7617 37.898 74.9057 38.129 75.3357C38.339 75.7297 38.758 75.7457 49.172 75.7297C55.125 75.7227 60.035 75.7537 60.086 75.7997C60.223 75.9407 60.172 113.11 60.031 113.996C59.938 114.578 60 114.886 60.266 115.152C60.726 115.613 60.852 115.609 61.516 115.086Z" fill="#7C4B4B"/>
</g>
<defs>
<clipPath id="clip0_370_14472">
<rect width="128" height="128" fill="white"/>
</clipPath>
</defs>
</svg>
