<svg width="128" height="128" viewBox="0 0 128 128" fill="none" xmlns="http://www.w3.org/2000/svg">
<g clip-path="url(#clip0_370_14492)">
<path d="M124.742 58.3783L69.6249 3.26429C66.4529 0.0902891 61.3049 0.0902891 58.1279 3.26429L46.6849 14.7103L61.2029 29.2283C64.5779 28.0893 68.4459 28.8533 71.1349 31.5423C72.4164 32.8249 73.3111 34.4423 73.7166 36.2095C74.1221 37.9767 74.0221 39.8223 73.4279 41.5353L87.4199 55.5293C90.8049 54.3623 94.7119 55.1163 97.4139 57.8243C101.194 61.6013 101.194 67.7243 97.4139 71.5033C96.5157 72.402 95.4491 73.1149 94.2752 73.6013C93.1013 74.0877 91.8431 74.3381 90.5724 74.3381C89.3018 74.3381 88.0435 74.0877 86.8697 73.6013C85.6958 73.1149 84.6292 72.402 83.7309 71.5033C82.3813 70.1528 81.4614 68.4334 81.0868 66.5612C80.7122 64.6891 80.8998 62.748 81.6259 60.9823L68.5779 47.9333L68.5759 82.2743C69.5226 82.7405 70.387 83.3579 71.1349 84.1023C74.9139 87.8793 74.9139 94.0003 71.1349 97.7853C67.3559 101.562 61.2309 101.562 57.4559 97.7853C53.6779 94.0013 53.3679 87.8803 57.1449 84.1023C58.0789 83.1693 58.9999 82.4643 59.9999 81.9923V47.3333C58.9999 46.8613 58.0799 46.1613 57.1439 45.2223C54.2829 42.3623 53.7479 38.1623 55.2159 34.6463L40.9829 20.3333L3.22894 58.1233C0.0539396 61.3003 0.0739396 66.4483 3.24894 69.6233L58.3749 124.737C61.5479 127.911 66.6999 127.911 69.8779 124.737L124.738 69.8793C127.913 66.7033 127.916 61.5523 124.742 58.3783Z" fill="#7C4B4B"/>
</g>
<defs>
<clipPath id="clip0_370_14492">
<rect width="128" height="128" fill="white"/>
</clipPath>
</defs>
</svg>
