<svg width="128" height="128" viewBox="0 0 128 128" fill="none" xmlns="http://www.w3.org/2000/svg">
<path d="M97.9049 67.8848C98.0789 86.6848 114.399 92.9418 114.579 93.0218C114.441 93.4618 111.972 101.938 105.982 110.691C100.804 118.259 95.4289 125.799 86.9639 125.957C78.6459 126.109 75.9709 121.023 66.4599 121.023C56.9519 121.023 53.9809 125.799 46.1059 126.109C37.9339 126.419 31.7109 117.924 26.4899 110.385C15.8219 94.9608 7.66891 66.7998 18.6159 47.7908C24.0539 38.3508 33.7739 32.3738 44.3229 32.2198C52.3469 32.0668 59.9209 37.6178 64.8259 37.6178C69.7279 37.6178 78.9319 30.9418 88.6079 31.9218C92.6589 32.0908 104.029 33.5578 111.33 44.2458C110.743 44.6108 97.7639 52.1668 97.9049 67.8848ZM82.2719 21.7188C86.6099 16.4678 89.5299 9.15581 88.7339 1.88281C82.4799 2.13381 74.9179 6.04981 70.4329 11.2988C66.4129 15.9458 62.8929 23.3858 63.8419 30.5148C70.8129 31.0548 77.9329 26.9728 82.2719 21.7188Z" fill="#7C4B4B"/>
</svg>
