<svg width="128" height="128" viewBox="0 0 128 128" fill="none" xmlns="http://www.w3.org/2000/svg">
<path d="M63.9991 0C63.0205 0.000813206 62.0591 0.257282 61.2101 0.744L11.4451 29.646L28.8521 61.58L64.5921 0.053C64.3965 0.0282371 64.2 0.0105589 64.0031 0L63.9991 0ZM66.3151 0.605V0.607L101.509 61.184L118.054 30.735C117.745 30.4225 117.4 30.1482 117.026 29.918L91.3801 15.024L66.7001 0.754H66.6931C66.5731 0.693 66.4411 0.655 66.3151 0.604V0.605ZM65.2911 0.853L29.4171 62.616L64.9961 127.894C65.0961 127.874 65.1941 127.871 65.2931 127.844L100.946 62.22L65.2911 0.853ZM10.5861 30.176C9.08408 31.207 8.23608 32.928 8.23608 34.771V93.249C8.23608 94.179 8.49008 95.087 8.92008 95.894L28.2601 62.601L10.5861 30.176ZM118.747 31.576L102.104 62.205L119.764 92.603V34.77C119.764 33.62 119.382 32.506 118.747 31.576ZM101.543 63.243L66.7351 127.305L66.7901 127.277L117.033 98.094L117.037 98.092C118.439 97.299 119.337 95.937 119.641 94.399L101.543 63.243ZM28.8251 63.637L9.54508 96.832C9.95108 97.332 10.4301 97.768 10.9751 98.098L10.9761 98.102L60.6781 126.968L61.2081 127.273L61.2141 127.275H61.2161C61.4731 127.426 61.7441 127.541 62.0141 127.647C62.1581 127.701 62.3021 127.751 62.4471 127.793C62.5721 127.83 62.6981 127.855 62.8231 127.882C63.0651 127.933 63.3061 127.97 63.5501 127.99C63.6681 128 63.7871 128 63.9051 128L28.8251 63.637Z" fill="#7C4B4B"/>
</svg>
