<svg width="128" height="128" viewBox="0 0 128 128" fill="none" xmlns="http://www.w3.org/2000/svg">
<path d="M22.666 1.59961C10.133 1.59961 0 11.7336 0 24.2676V103.732C0 116.266 10.133 126.4 22.666 126.4H105.334C117.867 126.4 128 116.266 128 103.732V24.2676C128 11.7336 117.867 1.59961 105.334 1.59961H22.666ZM45.867 33.3336C50.24 33.3336 53.867 33.8656 56.853 34.9856C59.5305 35.8954 61.9719 37.3899 64 39.3606C65.7188 41.0843 67.0469 43.1575 67.894 45.4396C68.694 47.6796 69.119 49.9726 69.119 52.3726C69.119 56.9596 68.053 60.7456 65.919 63.7326C63.787 66.7186 60.801 68.9596 57.334 70.2396C53.707 71.5736 49.707 72.0526 45.334 72.0526C44.054 72.0526 43.199 72.0526 42.666 71.9996C42.133 71.9466 41.386 71.9466 40.373 71.9466V89.0666C40.426 89.4396 40.16 89.7606 39.787 89.8136H29.44C29.014 89.8136 28.802 89.5986 28.802 89.1186V34.2396C28.802 33.8666 28.962 33.6516 29.335 33.6516C30.242 33.6516 31.095 33.6516 32.321 33.5996C33.601 33.5456 34.934 33.5476 36.374 33.4936C37.814 33.4406 39.361 33.4396 41.014 33.3866C42.668 33.3326 44.267 33.3336 45.867 33.3336ZM47.057 43.8376C46.7847 43.8323 46.5123 43.833 46.24 43.8396C44.854 43.8396 43.627 43.8406 42.613 43.8946C41.547 43.8406 40.801 43.8936 40.428 43.9466V61.8666C41.174 61.9206 41.866 61.9726 42.506 61.9726H45.334C47.414 61.9726 49.494 61.6526 51.467 61.0126C53.174 60.5326 54.667 59.5186 55.84 58.1856C56.96 56.8516 57.494 55.0396 57.494 52.6926C57.5444 51.0263 57.1192 49.3801 56.268 47.9466C55.361 46.5606 54.08 45.4926 52.533 44.9066C50.806 44.2066 48.957 43.8746 47.057 43.8376ZM91.787 46.5606C93.974 46.5606 96.214 46.7186 98.4 47.0386C100 47.2516 101.546 47.6806 102.986 48.2676C103.2 48.3206 103.413 48.5326 103.519 48.7456C103.573 48.9586 103.627 49.1726 103.627 49.3856V58.0796C103.628 58.1832 103.604 58.2854 103.558 58.3781C103.512 58.4707 103.444 58.5511 103.361 58.6126C102.881 58.7196 102.614 58.7196 102.401 58.6126C100.801 57.7596 99.093 57.1736 97.279 56.8006C95.306 56.3736 93.333 56.1056 91.307 56.1056C90.24 56.0516 89.119 56.2136 88.106 56.4796C87.412 56.6396 86.826 57.0136 86.453 57.5466C86.187 57.9736 86.027 58.5066 86.027 58.9866C86.027 59.4666 86.241 59.9466 86.561 60.3726C87.041 60.9596 87.68 61.4406 88.373 61.8146C89.6097 62.454 90.8732 63.0402 92.16 63.5716C95.04 64.5316 97.813 65.8666 100.373 67.4666C102.133 68.5866 103.573 70.0806 104.586 71.8936C105.444 73.5947 105.866 75.4822 105.814 77.3866C105.857 79.9075 105.13 82.3816 103.732 84.4796C102.245 86.6083 100.17 88.2575 97.76 89.2256C95.146 90.3456 91.946 90.9326 88.106 90.9326C85.652 90.9326 83.254 90.7196 80.854 90.2396C78.973 89.9145 77.1436 89.3405 75.414 88.5326C75.041 88.3196 74.773 87.9456 74.826 87.5186V78.2396C74.826 78.0796 74.879 77.8656 75.039 77.7596C75.199 77.6526 75.359 77.7076 75.519 77.8136C77.5736 79.0251 79.8053 79.9071 82.133 80.4276C84.16 80.9606 86.294 81.2266 88.428 81.2266C90.454 81.2266 91.894 80.9596 92.854 80.4796C93.707 80.1066 94.293 79.1996 94.293 78.2396C94.293 77.4936 93.867 76.7986 93.013 76.1046C92.16 75.4116 90.4 74.6126 87.787 73.5996C85.1059 72.6549 82.5597 71.364 80.213 69.7596C78.542 68.5685 77.1574 67.02 76.16 65.2266C75.3089 63.5422 74.8877 61.6733 74.934 59.7866C74.934 57.4936 75.573 55.3066 76.746 53.3336C78.079 51.2006 80.054 49.4936 82.348 48.4276C84.854 47.1476 87.999 46.5606 91.787 46.5606Z" fill="#7C4B4B"/>
</svg>
