<svg width="128" height="128" viewBox="0 0 128 128" fill="none" xmlns="http://www.w3.org/2000/svg">
<path d="M125.54 26.2302C125.015 23.5921 124.123 21.0407 122.89 18.6502C121.601 16.3349 119.999 14.2082 118.13 12.3302C116.202 10.4436 113.962 8.90432 111.51 7.78023C109.09 6.55994 106.501 5.70723 103.83 5.25023C101.18 4.74023 98.27 4.74023 95.62 4.49023H30.25C28.2108 4.52344 26.1762 4.69382 24.16 5.00023C22.1591 5.23566 20.2004 5.74719 18.34 6.52023C17.81 6.77023 17.02 7.03023 16.49 7.28023C14.7297 8.22379 13.0565 9.32141 11.49 10.5602C10.96 11.0702 10.43 11.3202 9.89995 11.8202C7.95101 13.6279 6.33923 15.7679 5.13995 18.1402C3.83028 20.4971 2.93399 23.0608 2.48995 25.7202C2.09582 28.3154 1.83216 30.9287 1.69995 33.5502V93.9402C1.70077 96.5701 1.96543 99.1932 2.48995 101.77C3.01473 104.408 3.90674 106.96 5.13995 109.35C6.42874 111.666 8.03047 113.792 9.89995 115.67C11.8281 117.557 14.0677 119.096 16.52 120.22C18.94 121.441 21.5284 122.293 24.2 122.75C26.85 123.26 29.76 123.26 32.41 123.51H95.63C98.3841 123.508 101.132 123.254 103.84 122.75C106.511 122.293 109.1 121.441 111.52 120.22C113.92 119.006 116.146 117.476 118.14 115.67C120.089 113.863 121.701 111.723 122.9 109.35C124.21 106.993 125.106 104.43 125.55 101.77C125.944 99.1751 126.208 96.5618 126.34 93.9402V34.0602C126.336 31.43 126.068 28.8069 125.54 26.2302ZM106.75 101.77C101 91.0002 90.37 94.3302 85 96.5002C73.89 102.63 58.62 103.26 43.25 96.9702C31.2661 92.1078 21.0198 83.7568 13.84 73.0002C17.1767 75.5545 20.8221 77.6779 24.69 79.3202C40.56 86.4202 56.42 85.9302 67.59 79.3202C51.69 67.6602 38.1899 52.5002 28.1299 40.1202C26.1447 38.028 24.3727 35.7434 22.84 33.3002C35 43.9102 54.34 57.3002 61.22 61.0902C51.3967 51.0251 42.3696 40.2126 34.22 28.7502C47.767 41.9151 62.674 53.604 78.69 63.6202C79.4 64.0002 79.95 64.3202 80.39 64.6202C80.8594 63.4741 81.2634 62.3022 81.6 61.1102C85.31 48.2202 81.07 33.5702 71.81 21.4402C93.25 33.8102 106 57.0502 100.66 76.5102C100.52 77.0402 100.37 77.5102 100.21 78.0602L100.4 78.2802C111 90.9102 108.07 104.3 106.75 101.77Z" fill="#7C4B4B"/>
</svg>
