<svg width="128" height="128" viewBox="0 0 128 128" fill="none" xmlns="http://www.w3.org/2000/svg">
<g clip-path="url(#clip0_370_14494)">
<path fill-rule="evenodd" clip-rule="evenodd" d="M90.7671 127.126C91.7857 127.523 92.8751 127.707 93.9675 127.665C95.0599 127.623 96.132 127.356 97.1171 126.882L123.47 114.201C124.827 113.548 125.972 112.525 126.774 111.249C127.575 109.974 128 108.498 128 106.992V21.0091C128 19.5028 127.575 18.0269 126.774 16.7514C125.973 15.4759 124.827 14.4525 123.47 13.7991L97.1171 1.12014C95.628 0.403648 93.953 0.167744 92.3239 0.44508C90.6948 0.722416 89.1923 1.49928 88.0241 2.66814L37.5741 48.6941L15.6001 32.0131C14.6089 31.2605 13.3854 30.8786 12.142 30.9338C10.8987 30.989 9.71382 31.4777 8.79311 32.3151L1.74511 38.7261C1.19586 39.2257 0.756928 39.8344 0.456388 40.5133C0.155849 41.1922 0.000322148 41.9264 -0.000242597 42.6688C-0.000807342 43.4113 0.153602 44.1457 0.453109 44.825C0.752615 45.5044 1.19062 46.1137 1.73911 46.6141L20.7961 64.0001L1.74011 81.3871C1.19192 81.8876 0.754176 82.4969 0.454856 83.1762C0.155535 83.8555 0.00122612 84.5897 0.00179081 85.332C0.0023555 86.0743 0.157782 86.8082 0.458135 87.487C0.758489 88.1658 1.19716 88.7745 1.74611 89.2741L8.79411 95.6851C9.71461 96.5229 10.8994 97.0119 12.1428 97.0673C13.3863 97.1226 14.6098 96.7408 15.6011 95.9881L37.5751 79.3081L88.0251 125.333C88.8052 126.115 89.7383 126.725 90.7671 127.126ZM96.0191 34.9431L57.7401 64.0001L96.0201 93.0581L96.0191 34.9431Z" fill="#7C4B4B"/>
</g>
<defs>
<clipPath id="clip0_370_14494">
<rect width="128" height="128" fill="white"/>
</clipPath>
</defs>
</svg>
