<svg width="100" height="100" viewBox="0 0 100 100" fill="none" xmlns="http://www.w3.org/2000/svg">
<g clip-path="url(#clip0_454_5)">
<rect x="12" y="43" width="80" height="40" rx="2" fill="#7C4B4B"/>
<path d="M83.9568 59.7322C83.9941 59.7975 84.0501 59.8208 84.1248 59.8022C84.5914 59.6715 85.0114 59.6062 85.3848 59.6062C86.0101 59.6062 86.5421 59.7462 86.9808 60.0262C87.4194 60.3062 87.7554 60.6655 87.9888 61.1042C88.2221 61.5335 88.3388 61.9908 88.3388 62.4762C88.3388 63.0175 88.1941 63.5168 87.9048 63.9742C87.5688 64.5062 87.1208 64.9122 86.5608 65.1922C86.0101 65.4628 85.3894 65.5982 84.6988 65.5982C84.1014 65.5982 83.4574 65.4908 82.7668 65.2762C82.6454 65.2388 82.5474 65.1688 82.4728 65.0662C82.3981 64.9635 82.3608 64.8515 82.3608 64.7302C82.3608 64.5342 82.4261 64.3848 82.5568 64.2822C82.6874 64.1702 82.8368 64.1142 83.0048 64.1142C83.0421 64.1142 83.0748 64.1188 83.1028 64.1282C83.1308 64.1282 83.1634 64.1328 83.2008 64.1422C83.4901 64.2262 83.7608 64.2868 84.0128 64.3242C84.2741 64.3615 84.5121 64.3802 84.7268 64.3802C85.2774 64.3802 85.7254 64.2868 86.0708 64.1002C86.4254 63.9042 86.6868 63.6568 86.8548 63.3582C87.0321 63.0595 87.1208 62.7562 87.1208 62.4482C87.1208 62.1588 87.0508 61.8882 86.9108 61.6362C86.7708 61.3842 86.5654 61.1788 86.2948 61.0202C86.0334 60.8615 85.7068 60.7822 85.3148 60.7822C85.1001 60.7822 84.8574 60.8102 84.5868 60.8662C84.5028 60.8848 84.4748 60.9362 84.5028 61.0202C84.5681 61.1975 84.6241 61.3842 84.6708 61.5802C84.7268 61.7762 84.7734 61.9768 84.8108 62.1822C84.8201 62.2102 84.8248 62.2522 84.8248 62.3082C84.8248 62.4575 84.7688 62.5928 84.6568 62.7142C84.5448 62.8262 84.4048 62.8822 84.2368 62.8822C84.0874 62.8822 83.9521 62.8355 83.8308 62.7422C83.7188 62.6488 83.6441 62.5275 83.6068 62.3782C83.5414 62.0888 83.4574 61.7902 83.3548 61.4822C83.3268 61.3982 83.2708 61.3795 83.1868 61.4262C82.8508 61.6128 82.5194 61.8135 82.1928 62.0282C81.8754 62.2428 81.5488 62.4622 81.2128 62.6862C81.1474 62.7235 81.1288 62.7795 81.1568 62.8542L83.3548 68.5242C83.3828 68.5895 83.3968 68.6642 83.3968 68.7482C83.3968 68.8975 83.3408 69.0375 83.2288 69.1682C83.1261 69.2988 82.9814 69.3642 82.7948 69.3642C82.6734 69.3642 82.5568 69.3268 82.4448 69.2522C82.3421 69.1868 82.2674 69.0935 82.2208 68.9722L80.0788 63.4982C80.0508 63.4235 79.9994 63.4002 79.9248 63.4282C79.5701 63.6055 79.1828 63.7735 78.7628 63.9322C78.3428 64.0908 77.8761 64.2215 77.3628 64.3242C77.3348 64.3335 77.2928 64.3382 77.2368 64.3382C77.0874 64.3382 76.9568 64.2822 76.8448 64.1702C76.7328 64.0582 76.6768 63.9182 76.6768 63.7502C76.6768 63.6008 76.7234 63.4702 76.8168 63.3582C76.9194 63.2368 77.0454 63.1575 77.1948 63.1202C77.6521 63.0268 78.0674 62.9102 78.4408 62.7702C78.8234 62.6302 79.1781 62.4808 79.5048 62.3222C79.5794 62.2755 79.6028 62.2195 79.5748 62.1542L78.6788 59.8582C78.6508 59.7835 78.6368 59.7088 78.6368 59.6342C78.6368 59.4755 78.6928 59.3355 78.8048 59.2142C78.9261 59.0928 79.0754 59.0322 79.2528 59.0322C79.5234 59.0322 79.7101 59.1582 79.8128 59.4102L80.6248 61.5102C80.6621 61.5942 80.7181 61.6128 80.7928 61.5662C81.1194 61.3515 81.4368 61.1415 81.7448 60.9362C82.0621 60.7308 82.3981 60.5395 82.7528 60.3622C82.8274 60.3155 82.8461 60.2595 82.8088 60.1942C82.7248 60.0355 82.6361 59.8862 82.5428 59.7462C82.4588 59.6062 82.3701 59.4755 82.2768 59.3542C82.1834 59.2328 82.1368 59.1115 82.1368 58.9902C82.1368 58.8035 82.2161 58.6588 82.3748 58.5562C82.4868 58.4722 82.6174 58.4302 82.7668 58.4302C82.9721 58.4302 83.1401 58.5048 83.2708 58.6542C83.4014 58.8035 83.5228 58.9715 83.6348 59.1582C83.7468 59.3355 83.8541 59.5268 83.9568 59.7322Z" fill="#F5EBDD"/>
<path d="M73.5685 66.7601C72.6631 66.4988 71.6598 66.0368 70.5585 65.3741C69.4571 64.7021 68.3605 63.8901 67.2685 62.9381C66.9605 62.6581 66.7318 62.5181 66.5825 62.5181C66.4891 62.5181 66.3911 62.5555 66.2885 62.6301C66.1951 62.7048 66.0785 62.8075 65.9385 62.9381C65.5465 63.2928 65.1731 63.6381 64.8185 63.9741C64.4731 64.3008 64.0531 64.6368 63.5585 64.9821C63.4371 65.0568 63.3205 65.0941 63.2085 65.0941C62.9658 65.0941 62.7791 64.9868 62.6485 64.7721C62.5925 64.6601 62.5645 64.5481 62.5645 64.4361C62.5645 64.3241 62.5925 64.2121 62.6485 64.1001C62.7045 63.9881 62.7838 63.8995 62.8865 63.8341C63.3438 63.5261 63.7451 63.2228 64.0905 62.9241C64.4358 62.6161 64.7485 62.3361 65.0285 62.0841C65.3085 61.8321 65.5745 61.6315 65.8265 61.4821C66.0785 61.3235 66.3398 61.2441 66.6105 61.2441C66.8065 61.2441 67.0118 61.2955 67.2265 61.3981C67.4411 61.4915 67.6791 61.6455 67.9405 61.8601C68.5285 62.3455 69.1211 62.8215 69.7185 63.2881C70.3251 63.7548 70.9645 64.1795 71.6365 64.5621C72.3085 64.9448 73.0505 65.2575 73.8625 65.5001C74.0118 65.5375 74.1285 65.6168 74.2125 65.7381C74.3058 65.8595 74.3525 65.9948 74.3525 66.1441C74.3525 66.3308 74.2871 66.4848 74.1565 66.6061C74.0351 66.7275 73.8951 66.7881 73.7365 66.7881C73.7085 66.7881 73.6805 66.7881 73.6525 66.7881C73.6245 66.7788 73.5965 66.7695 73.5685 66.7601Z" fill="#F5EBDD"/>
<path d="M54.9485 68.7339C54.7711 68.7526 54.6078 68.6966 54.4585 68.5659C54.3091 68.4353 54.2345 68.2719 54.2345 68.0759C54.2345 67.9266 54.2858 67.7959 54.3885 67.6839C54.4911 67.5719 54.6171 67.5019 54.7665 67.4739C55.9051 67.2966 56.7778 66.9139 57.3845 66.3259C58.0005 65.7379 58.3085 64.9866 58.3085 64.0719C58.3085 63.5306 58.1778 63.0359 57.9165 62.5879C57.6551 62.1399 57.2958 61.7806 56.8385 61.5099C56.3905 61.2299 55.8865 61.0759 55.3265 61.0479C55.2518 61.0479 55.2051 61.0853 55.1865 61.1599C54.9905 62.0466 54.7478 62.8959 54.4585 63.7079C54.1785 64.5106 53.8565 65.2293 53.4925 65.8639C53.1378 66.4893 52.7551 66.9839 52.3445 67.3479C51.9431 67.7119 51.5231 67.8939 51.0845 67.8939C50.9725 67.8939 50.8605 67.8799 50.7485 67.8519C50.2818 67.7399 49.9271 67.4599 49.6845 67.0119C49.4511 66.5639 49.3345 66.0366 49.3345 65.4299C49.3345 64.8793 49.4278 64.3053 49.6145 63.7079C49.8105 63.1106 50.0998 62.5506 50.4825 62.0279C51.0331 61.2813 51.7051 60.7259 52.4985 60.3619C53.3011 59.9979 54.1085 59.8159 54.9205 59.8159C55.5925 59.8159 56.2318 59.9326 56.8385 60.1659C57.4545 60.3993 57.9865 60.7493 58.4345 61.2159C58.8918 61.6733 59.2138 62.2379 59.4005 62.9099C59.5125 63.2833 59.5685 63.6753 59.5685 64.0859C59.5685 64.5899 59.4751 65.0939 59.2885 65.5979C59.1111 66.1019 58.8358 66.5733 58.4625 67.0119C58.0891 67.4413 57.6085 67.8099 57.0205 68.1179C56.4418 68.4166 55.7511 68.6219 54.9485 68.7339ZM50.6785 66.3679C50.7905 66.5639 50.9305 66.6619 51.0985 66.6619C51.3225 66.6619 51.5651 66.4986 51.8265 66.1719C52.0971 65.8453 52.3631 65.4159 52.6245 64.8839C52.8858 64.3519 53.1285 63.7733 53.3525 63.1479C53.5765 62.5133 53.7538 61.8973 53.8845 61.2999V61.2859C53.8845 61.2206 53.8285 61.1879 53.7165 61.1879C53.6885 61.1879 53.6605 61.1926 53.6325 61.2019C53.6045 61.2019 53.5765 61.2066 53.5485 61.2159C53.0071 61.3746 52.5405 61.6173 52.1485 61.9439C51.7658 62.2613 51.4485 62.6253 51.1965 63.0359C50.9538 63.4466 50.7718 63.8619 50.6505 64.2819C50.5385 64.6926 50.4825 65.0753 50.4825 65.4299C50.4825 65.8219 50.5478 66.1346 50.6785 66.3679Z" fill="#F5EBDD"/>
<path d="M44.975 60.6981C44.723 60.6981 44.5036 60.6094 44.317 60.4321C44.1396 60.2454 44.051 60.0261 44.051 59.7741C44.051 59.5128 44.1396 59.2934 44.317 59.1161C44.5036 58.9388 44.723 58.8501 44.975 58.8501C45.227 58.8501 45.4416 58.9388 45.619 59.1161C45.8056 59.2934 45.899 59.5128 45.899 59.7741C45.899 60.0261 45.8056 60.2454 45.619 60.4321C45.4416 60.6094 45.227 60.6981 44.975 60.6981ZM43.771 69.3361C43.5843 69.3454 43.421 69.2894 43.281 69.1681C43.1503 69.0468 43.085 68.8928 43.085 68.7061C43.085 68.5194 43.1503 68.3654 43.281 68.2441C43.421 68.1134 43.5843 68.0574 43.771 68.0761C43.911 68.1041 44.065 68.1181 44.233 68.1181H44.261C44.3263 68.1181 44.359 68.0808 44.359 68.0061V63.0781C44.359 63.0034 44.3263 62.9661 44.261 62.9661C44.093 62.9661 43.9296 62.9801 43.771 63.0081C43.5843 63.0174 43.421 62.9614 43.281 62.8401C43.1503 62.7188 43.085 62.5648 43.085 62.3781C43.085 62.1914 43.155 62.0374 43.295 61.9161C43.435 61.7854 43.5936 61.7294 43.771 61.7481C44.023 61.7668 44.2003 61.7854 44.303 61.8041C44.415 61.8134 44.4896 61.8181 44.527 61.8181C44.5643 61.8181 44.611 61.8181 44.667 61.8181C44.919 61.8181 45.1336 61.9114 45.311 62.0981C45.4976 62.2754 45.591 62.4901 45.591 62.7421V68.0061C45.591 68.0808 45.6236 68.1181 45.689 68.1181C45.8663 68.1181 46.0296 68.1041 46.179 68.0761C46.3656 68.0574 46.5243 68.1134 46.655 68.2441C46.7856 68.3654 46.851 68.5194 46.851 68.7061C46.851 68.8928 46.7856 69.0468 46.655 69.1681C46.5243 69.2894 46.3656 69.3454 46.179 69.3361C45.9923 69.3174 45.7916 69.2988 45.577 69.2801C45.3716 69.2614 45.171 69.2521 44.975 69.2521C44.779 69.2521 44.5736 69.2614 44.359 69.2801C44.1536 69.2988 43.9576 69.3174 43.771 69.3361Z" fill="#F5EBDD"/>
<path d="M41.5287 68.1879C41.6874 68.1879 41.8227 68.2439 41.9347 68.3559C42.0467 68.4586 42.1027 68.5939 42.1027 68.7619C42.1027 68.9299 42.042 69.0652 41.9207 69.1679C41.7994 69.2799 41.65 69.3312 41.4727 69.3219C41.1834 69.2939 40.9547 69.2752 40.7867 69.2659C40.628 69.2566 40.474 69.2519 40.3247 69.2519C40.1567 69.2519 39.9934 69.2566 39.8347 69.2659C39.676 69.2846 39.4614 69.3032 39.1907 69.3219C39.0134 69.3312 38.864 69.2799 38.7427 69.1679C38.6214 69.0652 38.5607 68.9299 38.5607 68.7619C38.5607 68.5846 38.6214 68.4399 38.7427 68.3279C38.864 68.2159 39.0134 68.1692 39.1907 68.1879C39.2 68.1879 39.2047 68.1786 39.2047 68.1599C39.2047 68.1319 39.1907 68.0899 39.1627 68.0339L37.5947 65.7519C37.548 65.6679 37.492 65.6586 37.4267 65.7239L36.7127 66.3259C36.666 66.3726 36.6427 66.4239 36.6427 66.4799V68.1039C36.6427 68.1879 36.6847 68.2252 36.7687 68.2159L37.1747 68.1879C37.352 68.1692 37.5014 68.2159 37.6227 68.3279C37.744 68.4399 37.8047 68.5846 37.8047 68.7619C37.8047 68.9299 37.744 69.0652 37.6227 69.1679C37.5014 69.2799 37.352 69.3312 37.1747 69.3219C36.8854 69.2939 36.6567 69.2752 36.4887 69.2659C36.33 69.2566 36.1807 69.2519 36.0407 69.2519C35.938 69.2519 35.8447 69.2519 35.7607 69.2519C35.6767 69.2612 35.5694 69.2706 35.4387 69.2799C35.3174 69.2892 35.1354 69.3032 34.8927 69.3219C34.7154 69.3312 34.566 69.2799 34.4447 69.1679C34.3234 69.0652 34.2627 68.9299 34.2627 68.7619C34.2627 68.5846 34.3234 68.4399 34.4447 68.3279C34.566 68.2159 34.7154 68.1692 34.8927 68.1879L35.2987 68.2159H35.3267C35.392 68.2159 35.4247 68.1786 35.4247 68.1039V59.8159C35.4247 59.7412 35.392 59.7039 35.3267 59.7039C35.2427 59.7039 35.1587 59.7132 35.0747 59.7319C35 59.7412 34.916 59.7459 34.8227 59.7459C34.6734 59.7459 34.5427 59.6946 34.4307 59.5919C34.3187 59.4799 34.2627 59.3446 34.2627 59.1859C34.2627 59.0086 34.3234 58.8639 34.4447 58.7519C34.566 58.6399 34.7154 58.5932 34.8927 58.6119C35.0327 58.6212 35.1727 58.6352 35.3127 58.6539C35.462 58.6632 35.5974 58.6726 35.7187 58.6819C35.9707 58.6912 36.1854 58.7846 36.3627 58.9619C36.5494 59.1392 36.6427 59.3539 36.6427 59.6059V64.7579C36.6427 64.8046 36.6567 64.8372 36.6847 64.8559C36.722 64.8746 36.7594 64.8652 36.7967 64.8279L38.9107 63.0359C38.9574 62.9986 38.9854 62.9659 38.9947 62.9379C39.0134 62.9006 39.0087 62.8819 38.9807 62.8819C38.9434 62.8819 38.9107 62.8866 38.8827 62.8959C38.864 62.8959 38.8314 62.8959 38.7847 62.8959C38.626 62.8959 38.486 62.8399 38.3647 62.7279C38.2527 62.6159 38.1967 62.4806 38.1967 62.3219C38.1967 62.1539 38.2574 62.0139 38.3787 61.9019C38.5094 61.7806 38.6587 61.7292 38.8267 61.7479C39.1254 61.7759 39.354 61.7992 39.5127 61.8179C39.6714 61.8272 39.8207 61.8319 39.9607 61.8319C40.138 61.8319 40.3014 61.8272 40.4507 61.8179C40.6094 61.7992 40.8287 61.7759 41.1087 61.7479C41.2767 61.7292 41.4214 61.7806 41.5427 61.9019C41.6734 62.0139 41.7387 62.1539 41.7387 62.3219C41.7387 62.4899 41.6734 62.6299 41.5427 62.7419C41.4214 62.8539 41.2767 62.9052 41.1087 62.8959C41.0527 62.8959 41.006 62.8912 40.9687 62.8819C40.9034 62.8819 40.852 62.9006 40.8147 62.9379L38.5467 64.8419C38.4814 64.9072 38.472 64.9679 38.5187 65.0239L40.6607 68.1599C40.7074 68.2159 40.7587 68.2439 40.8147 68.2439C40.936 68.2252 41.0574 68.2112 41.1787 68.2019C41.3 68.1926 41.4167 68.1879 41.5287 68.1879Z" fill="#F5EBDD"/>
<path d="M32.5204 68.1178C32.707 68.0991 32.8657 68.1505 32.9964 68.2718C33.127 68.3838 33.1924 68.5331 33.1924 68.7198C33.1924 68.8971 33.1224 69.0465 32.9824 69.1678C32.8517 69.2891 32.6977 69.3405 32.5204 69.3218C32.3897 69.3031 32.2497 69.2798 32.1004 69.2518C31.951 69.2331 31.811 69.2191 31.6804 69.2098C31.4284 69.2005 31.209 69.1071 31.0224 68.9298C30.845 68.7525 30.7564 68.5378 30.7564 68.2858C30.7564 68.2391 30.7424 68.2158 30.7144 68.2158C30.677 68.2158 30.6397 68.2345 30.6024 68.2718C29.9584 68.9718 29.249 69.3218 28.4744 69.3218C27.8024 69.3218 27.2237 69.1491 26.7384 68.8038C26.5237 68.6451 26.309 68.4165 26.0944 68.1178C25.889 67.8098 25.7864 67.4038 25.7864 66.8998V62.9658C25.7864 62.8911 25.7537 62.8538 25.6884 62.8538C25.595 62.8538 25.5017 62.8631 25.4084 62.8818C25.3244 62.8911 25.231 62.8958 25.1284 62.8958C24.979 62.8958 24.8484 62.8445 24.7364 62.7418C24.6244 62.6298 24.5684 62.4898 24.5684 62.3218C24.5684 62.1538 24.629 62.0138 24.7504 61.9018C24.8717 61.7898 25.0164 61.7431 25.1844 61.7618C25.399 61.7805 25.567 61.7945 25.6884 61.8038C25.8097 61.8038 25.9404 61.8085 26.0804 61.8178C26.3324 61.8178 26.547 61.9111 26.7244 62.0978C26.911 62.2751 27.0044 62.4898 27.0044 62.7418V66.8998C27.0044 67.1891 27.065 67.4178 27.1864 67.5858C27.317 67.7445 27.4664 67.8611 27.6344 67.9358C27.8117 68.0105 27.9797 68.0571 28.1384 68.0758C28.297 68.0945 28.409 68.1038 28.4744 68.1038C28.885 68.1038 29.2864 67.9685 29.6784 67.6978C30.0704 67.4271 30.4157 67.0491 30.7144 66.5638C30.7424 66.5078 30.7564 66.4565 30.7564 66.4098V62.9658C30.7564 62.8911 30.7237 62.8538 30.6584 62.8538C30.565 62.8538 30.4717 62.8631 30.3784 62.8818C30.285 62.8911 30.1917 62.8958 30.0984 62.8958C29.949 62.8958 29.8184 62.8445 29.7064 62.7418C29.5944 62.6298 29.5384 62.4898 29.5384 62.3218C29.5384 62.1538 29.599 62.0138 29.7204 61.9018C29.8417 61.7898 29.9864 61.7431 30.1544 61.7618C30.369 61.7805 30.537 61.7945 30.6584 61.8038C30.7797 61.8038 30.9104 61.8085 31.0504 61.8178C31.3024 61.8178 31.517 61.9111 31.6944 62.0978C31.881 62.2751 31.9744 62.4898 31.9744 62.7418V68.0618C31.9744 68.1645 32.021 68.2065 32.1144 68.1878L32.5204 68.1178Z" fill="#F5EBDD"/>
<path d="M23.3161 61.7618C23.4841 61.7431 23.6288 61.7898 23.7501 61.9018C23.8715 62.0138 23.9321 62.1585 23.9321 62.3358C23.9321 62.5038 23.8715 62.6438 23.7501 62.7558C23.6288 62.8678 23.4841 62.9191 23.3161 62.9098L23.1201 62.8818H23.0921C23.0455 62.8818 23.0035 62.9098 22.9661 62.9658L19.5501 70.5958C18.8781 71.9958 18.0195 72.6958 16.9741 72.6958C16.6381 72.6958 16.3301 72.6165 16.0501 72.4578C15.7795 72.3085 15.5601 72.1078 15.3921 71.8558C15.2241 71.6038 15.1401 71.3285 15.1401 71.0298C15.1401 70.7031 15.2335 70.4371 15.4201 70.2318C15.6068 70.0358 15.8401 69.9378 16.1201 69.9378C16.3628 69.9378 16.5681 70.0265 16.7361 70.2038C16.9135 70.3905 17.0021 70.6051 17.0021 70.8478C17.0021 71.0718 16.9415 71.2538 16.8201 71.3938C16.7455 71.4685 16.7501 71.5291 16.8341 71.5758C16.8901 71.5945 16.9368 71.6038 16.9741 71.6038C17.5528 71.6038 18.0288 71.1838 18.4021 70.3438L18.8921 69.2378C18.9108 69.1818 18.9108 69.1258 18.8921 69.0698L16.2041 62.9658C16.1668 62.9005 16.1155 62.8725 16.0501 62.8818L15.7841 62.9098C15.6161 62.9191 15.4715 62.8678 15.3501 62.7558C15.2288 62.6438 15.1681 62.5038 15.1681 62.3358C15.1681 62.1585 15.2288 62.0138 15.3501 61.9018C15.4715 61.7898 15.6161 61.7431 15.7841 61.7618C16.0455 61.7805 16.2648 61.7945 16.4421 61.8038C16.6195 61.8131 16.7828 61.8178 16.9321 61.8178C17.0908 61.8178 17.2588 61.8131 17.4361 61.8038C17.6135 61.7945 17.8281 61.7805 18.0801 61.7618C18.2481 61.7431 18.3928 61.7898 18.5141 61.9018C18.6355 62.0138 18.6961 62.1585 18.6961 62.3358C18.6961 62.4945 18.6401 62.6298 18.5281 62.7418C18.4161 62.8538 18.2808 62.9098 18.1221 62.9098C18.0475 62.9098 17.9635 62.9051 17.8701 62.8958C17.7768 62.8771 17.6835 62.8631 17.5901 62.8538H17.5621C17.4688 62.8538 17.4455 62.9005 17.4921 62.9938L19.4801 67.5438C19.5081 67.5998 19.5361 67.6278 19.5641 67.6278C19.6108 67.6278 19.6388 67.5998 19.6481 67.5438L21.6921 62.9938C21.7015 62.9751 21.7061 62.9518 21.7061 62.9238C21.7061 62.8771 21.6781 62.8538 21.6221 62.8538C21.5288 62.8538 21.4261 62.8585 21.3141 62.8678C21.2115 62.8771 21.1135 62.8911 21.0201 62.9098C20.8521 62.9191 20.7075 62.8678 20.5861 62.7558C20.4648 62.6438 20.4041 62.5038 20.4041 62.3358C20.4041 62.1585 20.4648 62.0138 20.5861 61.9018C20.7075 61.7898 20.8521 61.7431 21.0201 61.7618C21.2815 61.7805 21.5008 61.7945 21.6781 61.8038C21.8555 61.8131 22.0188 61.8178 22.1681 61.8178C22.3268 61.8178 22.4948 61.8131 22.6721 61.8038C22.8495 61.7945 23.0641 61.7805 23.3161 61.7618Z" fill="#F5EBDD"/>
<rect x="-1" y="14" width="95" height="6" rx="2" fill="#7C4B4B"/>
<rect x="25" y="20" width="4" height="23" fill="#7C4B4B"/>
<rect x="71" y="20" width="4" height="23" fill="#7C4B4B"/>
<rect x="24" y="12" width="6" height="8" fill="#7C4B4B"/>
<rect x="70" y="12" width="6" height="8" fill="#7C4B4B"/>
<circle cx="52.5" cy="31.5" r="5.5" fill="#7C4B4B"/>
<ellipse cx="51" cy="36.5" rx="8" ry="5.5" fill="#7C4B4B"/>
<ellipse cx="43.6307" cy="35.3109" rx="5.68964" ry="0.659941" transform="rotate(-17.179 43.6307 35.3109)" fill="#7C4B4B"/>
<rect x="48" y="41" width="1" height="2" fill="#7C4B4B"/>
<rect x="54" y="41" width="1" height="2" fill="#7C4B4B"/>
</g>
<defs>
<clipPath id="clip0_454_5">
<rect width="100" height="100" fill="white"/>
</clipPath>
</defs>
</svg>
