<svg width="246" height="240" viewBox="0 0 246 240" fill="none" xmlns="http://www.w3.org/2000/svg">
<path d="M79.4821 145.082L122.783 170.082L166.084 145.082L166.085 95.0825L122.783 70.0821L79.4818 95.0821L79.4821 145.082ZM122.783 58.5351L176.085 89.3091L176.085 150.856L122.784 181.63L69.4822 150.856L69.4819 89.3085L122.783 58.5351Z" fill="#D8A39D"/>
<path d="M101.132 132.582L122.783 145.082L144.434 132.582L144.434 107.582L122.783 95.0824L101.133 107.582L101.132 132.582ZM122.783 83.5354L154.434 101.809L154.434 138.355L122.783 156.629L91.1326 138.356L91.1326 101.809L122.783 83.5354Z" fill="#D8A39D"/>
<path d="M127.926 235L127.919 235.257C127.785 237.899 125.601 240 122.926 240C120.251 240 118.067 237.899 117.933 235.257L117.926 235V145H127.926V235Z" fill="#D8A39D"/>
<path d="M155.807 199.048L156.026 199.182C158.247 200.619 158.975 203.561 157.637 205.878C156.299 208.195 153.388 209.036 151.033 207.831L150.807 207.708L120.496 190.208L125.496 181.548L155.807 199.048Z" fill="#D8A39D"/>
<path d="M144.479 221.67C146.87 223.051 147.689 226.109 146.309 228.5C144.928 230.892 141.87 231.711 139.479 230.33L120.426 219.33L125.426 210.67L144.479 221.67Z" fill="#D8A39D"/>
<path d="M101.426 221.67C99.0345 223.051 98.2151 226.109 99.5958 228.5C100.977 230.892 104.034 231.711 106.426 230.33L125.479 219.33L120.479 210.67L101.426 221.67Z" fill="#D8A39D"/>
<path d="M90.426 199.048L90.207 199.182C87.9858 200.619 87.2583 203.561 88.5959 205.878C89.9336 208.195 92.8453 209.036 95.2002 207.831L95.426 207.708L125.737 190.208L120.737 181.548L90.426 199.048Z" fill="#D8A39D"/>
<path d="M219.876 58.2524L220.102 58.1299C222.457 56.9247 225.369 57.7657 226.707 60.0826C228.044 62.3994 227.317 65.3416 225.096 66.7784L224.876 66.9127L146.934 111.913L141.934 103.252L219.876 58.2524Z" fill="#D8A39D"/>
<path d="M174.801 52.083L174.807 51.8262C174.941 49.1841 177.125 47.083 179.801 47.083C182.476 47.083 184.66 49.1841 184.794 51.8262L184.801 52.083L184.801 87.083L174.801 87.083L174.801 52.083Z" fill="#D8A39D"/>
<path d="M200.056 50.5825C200.056 47.8211 202.295 45.5825 205.056 45.5825C207.817 45.5825 210.056 47.8211 210.056 50.5825L210.056 72.5825L200.056 72.5825L200.056 50.5825Z" fill="#D8A39D"/>
<path d="M221.582 87.8672C223.974 89.2479 227.032 88.4285 228.412 86.0371C229.793 83.6456 228.974 80.5876 226.582 79.2069L207.53 68.2069L202.53 76.8672L221.582 87.8672Z" fill="#D8A39D"/>
<path d="M207.491 108.705L207.717 108.827C210.072 110.032 212.983 109.191 214.321 106.874C215.659 104.558 214.931 101.615 212.71 100.179L212.491 100.044L182.18 82.5443L177.18 91.2046L207.491 108.705Z" fill="#D8A39D"/>
<path d="M127.926 5L127.919 4.74316C127.785 2.10111 125.601 0 122.926 0C120.251 0 118.067 2.10111 117.933 4.74316L117.926 5V95H127.926V5Z" fill="#D8A39D"/>
<path d="M155.807 40.9521L156.026 40.8178C158.247 39.381 158.975 36.4389 157.637 34.122C156.299 31.8052 153.388 30.9641 151.033 32.1694L150.807 32.2919L120.496 49.7919L125.496 58.4521L155.807 40.9521Z" fill="#D8A39D"/>
<path d="M144.479 18.3301C146.87 16.9494 147.689 13.8914 146.309 11.5C144.928 9.10849 141.87 8.28911 139.479 9.66982L120.426 20.6698L125.426 29.3301L144.479 18.3301Z" fill="#D8A39D"/>
<path d="M101.426 18.3301C99.0345 16.9494 98.2151 13.8914 99.5958 11.5C100.977 9.10849 104.034 8.28911 106.426 9.66982L125.479 20.6698L120.479 29.3301L101.426 18.3301Z" fill="#D8A39D"/>
<path d="M90.426 40.9521L90.207 40.8178C87.9858 39.381 87.2583 36.4389 88.5959 34.122C89.9336 31.8052 92.8453 30.9641 95.2002 32.1694L95.426 32.2919L125.737 49.7919L120.737 58.4521L90.426 40.9521Z" fill="#D8A39D"/>
<path d="M20.6904 66.9126L20.4714 66.7783C18.2502 65.3414 17.5226 62.3993 18.8603 60.0825C20.1979 57.7656 23.1096 56.9246 25.4646 58.1298L25.6904 58.2523L103.633 103.252L98.6327 111.913L20.6904 66.9126Z" fill="#D8A39D"/>
<path d="M37.8855 109.034L37.6597 109.157C35.3047 110.362 32.393 109.521 31.0554 107.204C29.7178 104.887 30.4453 101.945 32.6665 100.508L32.8855 100.374L63.1964 82.8739L68.1964 91.5342L37.8855 109.034Z" fill="#D8A39D"/>
<path d="M23.9583 87.9126C21.5668 89.2933 18.5089 88.4739 17.1282 86.0825C15.7475 83.691 16.5668 80.6331 18.9583 79.2523L38.0109 68.2523L43.0109 76.9126L23.9583 87.9126Z" fill="#D8A39D"/>
<path d="M45.4846 50.6279C45.4846 47.8665 43.246 45.6279 40.4846 45.6279C37.7232 45.6279 35.4846 47.8665 35.4846 50.6279L35.4846 72.6279L45.4846 72.6279L45.4846 50.6279Z" fill="#D8A39D"/>
<path d="M70.5759 52.4126L70.5691 52.1558C70.4354 49.5137 68.2512 47.4126 65.5759 47.4126C62.9006 47.4126 60.7165 49.5137 60.5828 52.1558L60.5759 52.4126L60.5759 87.4126L70.5759 87.4126L70.5759 52.4126Z" fill="#D8A39D"/>
<path d="M219.876 181.913L220.102 182.035C222.457 183.24 225.369 182.399 226.706 180.082C228.044 177.766 227.316 174.823 225.095 173.387L224.876 173.252L146.934 128.252L141.934 136.913L219.876 181.913Z" fill="#D8A39D"/>
<path d="M174.8 188.082L174.807 188.339C174.941 190.981 177.125 193.082 179.8 193.082C182.476 193.082 184.66 190.981 184.793 188.339L184.8 188.082L184.8 153.082L174.8 153.082L174.8 188.082Z" fill="#D8A39D"/>
<path d="M200.056 189.583C200.056 192.344 202.294 194.583 205.056 194.583C207.817 194.583 210.056 192.344 210.056 189.583L210.056 167.583L200.056 167.583L200.056 189.583Z" fill="#D8A39D"/>
<path d="M221.582 152.298C223.974 150.917 227.032 151.737 228.412 154.128C229.793 156.519 228.974 159.577 226.582 160.958L207.53 171.958L202.53 163.298L221.582 152.298Z" fill="#D8A39D"/>
<path d="M207.491 131.46L207.717 131.338C210.071 130.133 212.983 130.974 214.321 133.291C215.658 135.607 214.931 138.55 212.71 139.986L212.491 140.121L182.18 157.621L177.18 148.96L207.491 131.46Z" fill="#D8A39D"/>
<path d="M20.6906 173.252L20.4716 173.387C18.2504 174.824 17.5229 177.766 18.8605 180.083C20.1982 182.399 23.1099 183.24 25.4648 182.035L25.6906 181.913L103.633 136.913L98.6329 128.252L20.6906 173.252Z" fill="#D8A39D"/>
<path d="M37.8858 131.131L37.6599 131.008C35.305 129.803 32.3933 130.644 31.0556 132.961C29.718 135.278 30.4455 138.22 32.6668 139.657L32.8858 139.791L63.1967 157.291L68.1967 148.631L37.8858 131.131Z" fill="#D8A39D"/>
<path d="M23.9585 152.252C21.5671 150.872 18.5091 151.691 17.1284 154.083C15.7477 156.474 16.5671 159.532 18.9585 160.913L38.0111 171.913L43.0111 163.252L23.9585 152.252Z" fill="#D8A39D"/>
<path d="M45.4849 189.537C45.4849 192.299 43.2463 194.537 40.4849 194.537C37.7234 194.537 35.4849 192.299 35.4849 189.537L35.4849 167.537L45.4849 167.537L45.4849 189.537Z" fill="#D8A39D"/>
<path d="M70.5762 187.752L70.5693 188.009C70.4356 190.651 68.2514 192.752 65.5762 192.752C62.9009 192.752 60.7167 190.651 60.583 188.009L60.5762 187.752L60.5762 152.752L70.5762 152.752L70.5762 187.752Z" fill="#D8A39D"/>
</svg>
