<svg width="128" height="128" viewBox="0 0 128 128" fill="none" xmlns="http://www.w3.org/2000/svg">
<path d="M108.59 26.1479C106.738 26.1479 104.968 26.3589 103.285 26.8629C101.601 27.3669 100.168 28.0859 98.906 29.0509C97.6603 29.9718 96.6267 31.1493 95.875 32.5039C95.118 33.8519 94.738 35.4099 94.738 37.1799C94.738 39.3669 95.454 41.4299 96.844 43.2849C98.23 45.1799 100.504 46.6089 103.578 47.5779L109.684 49.4729C111.746 50.1479 113.18 50.8639 113.938 51.6639C114.695 52.4649 115.074 53.4289 115.074 54.6089C115.074 56.3349 114.316 57.6829 112.883 58.6089C111.453 59.5339 109.391 59.9999 106.738 59.9999C105.051 59.9999 103.41 59.8319 101.727 59.4959C100.135 59.1682 98.5821 58.6735 97.094 58.0199C96.673 57.8519 96.293 57.6839 96.043 57.6019C95.7991 57.5174 95.5431 57.4734 95.285 57.4719C94.651 57.4719 94.316 57.8949 94.316 58.7769V60.9259C94.3175 61.3326 94.404 61.7346 94.57 62.1059C94.738 62.4859 95.199 62.9059 95.875 63.2859C96.969 63.9139 98.609 64.4649 100.715 64.9689C102.82 65.4729 105.012 65.7269 107.199 65.7269C109.349 65.7269 111.328 65.4299 113.223 64.8439C115.031 64.2929 116.59 63.5349 117.895 62.4839C119.199 61.4739 120.211 60.2109 120.969 58.7769C121.683 57.3479 122.063 55.7069 122.063 53.8949C122.063 51.7069 121.43 49.7269 120.125 47.9999C118.821 46.2729 116.634 44.9259 113.602 43.9569L107.622 42.0619C105.392 41.3489 103.832 40.5459 102.988 39.7459C102.148 38.9489 101.727 37.9379 101.727 36.7579C101.727 35.0319 102.398 33.8079 103.707 33.0119C105.012 32.2109 106.906 31.8319 109.305 31.8319C112.293 31.8319 114.988 32.3789 117.391 33.4719C118.105 33.8089 118.652 33.9799 118.988 33.9799C119.621 33.9799 119.957 33.5169 119.957 32.6329V30.6529C119.957 30.0629 119.832 29.6019 119.578 29.2619C119.328 28.8839 118.906 28.5469 118.316 28.2109C117.894 27.9569 117.305 27.7069 116.546 27.4529C115.756 27.197 114.956 26.9715 114.148 26.7769C113.262 26.6089 112.379 26.4409 111.41 26.3169C110.475 26.1984 109.533 26.1419 108.59 26.1479ZM21.768 26.2299C19.452 26.2299 17.26 26.4839 15.198 27.0309C13.135 27.5359 11.367 28.1679 9.89499 28.9259C9.30499 29.2229 8.92499 29.5159 8.71499 29.8089C8.50399 30.1049 8.42199 30.6089 8.42199 31.2849V33.3479C8.42199 34.2299 8.71499 34.6519 9.30499 34.6519C9.47299 34.6519 9.68299 34.6089 9.97899 34.5269C10.272 34.4409 10.775 34.2729 11.451 33.9799C12.9306 33.3946 14.4501 32.9157 15.998 32.5469C17.487 32.1834 19.0142 31.9998 20.547 31.9999C23.789 31.9999 26.06 32.6329 27.41 33.9379C28.714 35.2409 29.39 37.4719 29.39 40.6719V43.7459C27.707 43.3669 26.107 43.0309 24.547 42.8199C22.989 42.6099 21.516 42.4839 20.086 42.4839C15.746 42.4839 12.336 43.5779 9.76999 45.7699C7.19899 47.9569 5.93799 50.8629 5.93799 54.4409C5.93799 57.8089 6.98799 60.5039 9.05099 62.5269C11.117 64.5469 13.938 65.5589 17.473 65.5589C22.443 65.5589 26.57 63.6209 29.852 59.7459C30.2524 60.5914 30.6875 61.4201 31.156 62.2299C31.5981 62.936 32.1057 63.5989 32.672 64.2099C33.094 64.5899 33.516 64.7999 33.938 64.7999C34.272 64.7999 34.652 64.6719 35.031 64.4219L37.684 62.6519C38.23 62.2319 38.484 61.8089 38.484 61.3909C38.478 61.0467 38.3765 60.7109 38.191 60.4209C37.668 59.4454 37.2177 58.4327 36.844 57.3909C36.547 56.4659 36.379 55.2009 36.379 53.6409H36.293V39.9999C36.293 35.3669 35.117 31.9139 32.801 29.6399C30.441 27.3669 26.776 26.2299 21.768 26.2299ZM41.348 27.2419C40.672 27.2419 40.336 27.6209 40.336 28.2929C40.336 28.5899 40.465 29.1369 40.715 29.9799L50.609 62.5269C50.863 63.3269 51.156 63.9139 51.496 64.1679C51.832 64.4649 52.336 64.5899 53.094 64.5899H56.714C57.473 64.5899 58.061 64.4649 58.398 64.1679C58.738 63.8749 58.989 63.3279 59.199 62.4839L65.684 35.3669L72.211 62.5269C72.379 63.3669 72.671 63.9139 73.011 64.2109C73.348 64.5029 73.894 64.6329 74.695 64.6329H78.316C79.031 64.6329 79.578 64.4659 79.914 64.2109C80.254 63.9579 80.547 63.4109 80.801 62.5709L90.949 30.0199C91.117 29.5599 91.199 29.2229 91.242 28.9689C91.285 28.7149 91.328 28.5029 91.328 28.2929C91.328 27.5779 90.949 27.2429 90.273 27.2429H86.36C85.603 27.2429 85.052 27.4089 84.716 27.6639C84.423 27.9139 84.126 28.4639 83.876 29.3039L76.59 57.5169L69.937 29.3059C69.771 28.5059 69.473 27.9159 69.137 27.6659C68.801 27.3679 68.253 27.2429 67.453 27.2429H64.086C63.328 27.2429 62.738 27.4099 62.398 27.6649C62.063 27.9149 61.81 28.4649 61.602 29.3049L55.032 57.1809L47.957 29.3059C47.707 28.5059 47.453 27.9159 47.117 27.6659C46.82 27.3679 46.273 27.2429 45.473 27.2429L41.348 27.2419ZM21.64 47.4959C22.9639 47.4968 24.2865 47.5802 25.6 47.7459C26.9033 47.9114 28.1961 48.1515 29.472 48.4649V50.2299C29.472 51.6649 29.304 52.8829 29.05 53.8949C28.8 54.9049 28.292 55.7899 27.62 56.5899C26.483 57.8519 25.136 58.7769 23.62 59.2849C22.104 59.7889 20.671 60.0429 19.284 60.0429C17.347 60.0429 15.874 59.5349 14.862 58.4839C13.808 57.4739 13.304 55.9999 13.304 54.0199C13.304 51.9139 13.979 50.3159 15.366 49.1799C16.757 48.0429 18.82 47.4959 21.64 47.4959ZM118 73.3479C113.568 73.4109 108.336 74.3999 104.379 77.1799C103.156 78.0629 103.367 79.2419 104.715 79.0739C109.223 78.5269 119.155 77.3479 120.925 79.6209C122.695 81.8509 118.949 91.2409 117.262 95.4109C116.758 96.6709 117.852 97.1799 118.988 96.2109C126.398 89.9799 128.336 76.9689 126.82 75.0739C126.063 74.1489 122.432 73.2839 118 73.3479ZM1.62999 75.8589C0.703988 75.9749 0.282988 77.0949 1.26199 77.9799C17.77 92.8819 39.621 101.852 63.875 101.852C81.18 101.852 101.305 96.4219 115.156 86.1919C117.429 84.5029 115.454 81.9379 113.136 82.9879C97.603 89.5579 80.715 92.7579 65.348 92.7579C42.57 92.7579 20.548 86.4849 2.69499 76.1249C2.30499 75.8939 1.93999 75.8209 1.63099 75.8589H1.62999Z" fill="#7C4B4B"/>
</svg>
