<svg width="128" height="128" viewBox="0 0 128 128" fill="none" xmlns="http://www.w3.org/2000/svg">
<path d="M44.4401 100.63C40.2101 97.2998 35.7001 94.1098 32.6101 89.6198C26.1201 81.6998 21.1201 72.5198 17.7101 62.8798C15.6401 56.6098 14.9401 49.8898 12.2701 43.8598C9.49006 39.4798 12.7501 34.6998 17.5401 33.3098C19.6701 32.8998 23.4301 30.8798 18.9001 32.3298C14.8401 35.3098 14.4501 29.6198 18.6101 29.2598C21.4501 28.8798 22.5001 26.5598 21.5301 24.4598C18.4801 22.4698 28.9301 20.2798 23.6701 17.3098C18.1901 11.3998 31.3301 10.2598 28.0901 16.9798C27.3201 22.1398 37.2701 16.0298 34.9601 21.9898C37.3101 24.8498 43.7601 22.6398 43.5901 26.6598C47.0101 26.8998 48.1901 29.7698 51.3901 29.9898C54.7201 31.4898 60.7501 32.6798 61.8801 36.4298C58.5801 39.0398 50.9301 31.0298 50.5701 38.2698C51.5701 48.9598 51.3101 59.9698 55.2201 70.1498C57.0701 76.3098 61.5501 81.1598 65.6001 85.9598C69.4801 90.6598 74.7201 93.9698 80.0801 96.7598C84.7701 98.9698 89.8301 100.44 94.9501 101.36C97.0201 99.7698 100.69 93.8798 103.92 96.3598C104.08 99.1598 97.5001 102.2 103.61 101.9C107.2 100.82 109.69 104.67 112.65 101.19C115.37 104.42 123.97 99.1298 122.03 105.72C119.41 107.41 115.59 106.39 112.96 108.72C108.63 106.56 105.19 110.65 100.4 110.14C95.0801 111.09 89.6701 111.48 84.2701 111.48C75.4201 110.78 66.3801 110.49 57.9701 107.41C53.2301 106.03 48.6001 103.33 44.4401 100.63ZM51.9101 103.87C56.5401 105.87 61.0701 107.98 66.1401 108.62C74.1901 109.74 82.5101 111.46 90.5901 109.89C86.9301 108.24 83.1501 110.53 79.5101 108.71C75.1401 109.65 70.4501 108.47 66.0101 107.89C60.9601 105.64 55.5101 104.09 50.7801 101.17C44.8701 99.0098 53.8401 103.94 55.4301 104.34C59.1201 106.44 51.3701 103.26 50.2701 102.39C47.1801 100.65 46.7801 101.02 49.9601 102.78C50.6001 103.15 51.2401 103.55 51.9101 103.87ZM43.1001 97.6398C47.5901 99.2998 43.0801 94.4798 41.0301 94.7598C40.1201 93.1798 37.5501 92.1798 39.3601 91.3298C36.1001 92.4598 35.9401 87.0298 34.4101 87.7998C30.9601 86.7098 33.0701 82.8498 28.9601 80.4798C28.5901 77.9798 24.8801 75.8198 23.7001 72.0498C23.1801 70.1198 19.5101 64.5898 21.7601 69.7398C23.6801 74.6998 27.0501 78.9498 29.8601 83.1898C32.0401 87.2298 34.6201 91.4498 38.5801 93.9698C39.9201 95.2698 41.2101 97.2398 43.1001 97.6398ZM30.1701 83.4498C30.9901 84.9098 30.3301 82.7698 30.1701 83.4498ZM48.4701 99.6298C49.4701 99.1898 47.0401 99.0698 48.4701 99.6298ZM50.9101 100.52C50.6601 99.2898 49.8001 101.21 50.9101 100.52ZM53.9601 101.79C55.4101 100.41 51.7201 100.92 53.9601 101.79ZM59.1801 104.7C60.0701 103.4 56.3601 104.21 59.1801 104.7ZM49.1501 97.7098C51.4001 96.2498 46.2401 97.6898 49.1501 97.7098ZM51.4401 98.8498C51.3701 98.0798 50.6201 99.1898 51.4401 98.8498ZM62.8701 105.98C64.7101 107.14 73.6001 108.52 68.0301 106.46C67.1001 106.66 57.7001 103.8 62.8701 105.98ZM44.7201 91.8498C44.5401 91.0798 41.8701 90.9998 44.7201 91.8498ZM50.0401 94.9498C51.4301 93.9898 47.1701 94.2098 50.0401 94.9498ZM54.5201 97.6998C56.5001 96.9498 51.2901 96.9498 54.5201 97.6998ZM42.5501 89.4898C44.7101 91.1398 51.2501 89.6998 45.8501 88.4998C43.4001 87.1898 37.8601 86.2998 41.6301 89.2898L42.5501 89.4898ZM57.5501 98.6498C58.4501 97.1198 53.7801 97.7698 57.5501 98.6498ZM52.9901 95.0198C58.2601 96.5098 48.5601 91.6798 51.6901 94.4698L52.3901 94.7898L52.9901 95.0198ZM62.1301 100.3C67.1201 100.35 57.6201 99.6198 62.1301 100.3ZM40.6301 86.5998C40.4401 85.6698 39.4001 86.6798 40.6301 86.5998ZM70.5701 105.04C70.7101 103.36 68.9501 106.29 70.5701 105.04ZM49.1501 91.8198C48.8501 90.9398 47.5901 91.7798 49.1501 91.8198ZM41.1101 86.0198C43.9701 85.8498 37.1801 84.7598 41.1101 86.0198ZM31.5701 79.8598C31.2101 78.4798 28.4501 77.3898 31.5701 79.8598ZM56.6001 95.7398C56.3501 95.8698 56.0801 95.1398 56.6001 95.7398ZM72.1801 105.3C72.1301 104.39 71.3301 105.65 72.1801 105.3ZM55.2201 94.3198C55.5001 93.1398 52.7801 93.9598 55.2201 94.3198ZM43.6201 86.9598C45.7501 86.7298 40.2001 85.5198 43.6201 86.9598ZM63.2501 99.1598C66.5701 97.8398 60.0101 98.5198 63.2501 99.1598ZM53.0401 92.2298C56.8701 92.7198 48.4801 89.6198 52.2001 91.9498L53.0401 92.2298ZM66.3501 100.42C69.9301 98.2798 68.7501 105.43 72.4201 101.02C76.0401 98.3798 69.2901 104.29 73.7501 101.49C76.9801 99.3298 81.7401 102.51 84.7501 103.55C86.9101 103.44 89.0201 105.42 91.2401 104.22C95.5101 103.07 82.8801 102.51 86.1901 100.47C82.2801 101.61 79.3901 99.1098 77.4701 96.6098C73.0801 95.5998 68.0101 93.3598 65.8201 89.4698C64.9301 88.0098 67.1101 89.6798 65.0501 87.2898C62.4101 84.9398 61.0901 82.2698 59.3201 79.4098C57.2001 78.2798 56.9501 74.9498 56.7401 79.2998C56.7601 76.5598 54.1801 74.7098 53.5501 75.4798C53.5401 72.8398 56.3101 74.1598 54.3701 72.2098C53.9501 69.4698 52.5801 66.6198 52.1701 63.5298C51.5301 62.0398 52.0801 58.8498 49.9801 62.2198C49.2201 65.7898 49.7301 57.8398 50.9201 60.4598C52.4801 57.7898 50.3601 58.0998 50.2701 58.4698C51.2901 56.2098 50.9101 53.0098 50.0001 54.2298C50.5401 51.8398 50.8601 45.4298 49.1901 46.5698C50.2001 44.0698 51.1101 35.1298 46.7201 38.5398C44.9401 38.5698 41.8701 39.1798 40.4101 39.9098C44.9701 42.4198 39.9501 40.8198 38.0901 40.4198C37.8501 42.7498 36.0101 41.7398 33.7101 41.7598C37.3801 42.2098 31.9201 45.5098 29.8201 44.2298C27.0801 45.5398 32.1801 48.7998 29.8701 49.8098C30.1501 51.3298 25.6801 49.2598 26.0301 52.7698C23.3801 51.6498 25.6701 56.9298 26.9901 55.1498C31.5001 56.3698 30.1701 59.1598 30.2801 61.7998C29.5401 63.3398 26.6501 58.1798 29.6401 58.4198C27.2801 54.5898 27.0301 57.0398 25.0801 58.8098C24.6301 58.9398 30.0701 61.3398 26.6501 62.5298C29.6601 62.9998 29.7501 65.6298 30.3601 67.2898C32.1701 69.1698 31.8001 65.2098 33.9601 67.4698C32.5901 65.4498 26.7101 61.7898 31.4401 62.9598C31.4101 60.9298 30.5801 59.2898 32.0401 59.3298C33.4801 56.7298 30.5301 65.7498 33.7701 62.4398C34.6701 62.0498 34.8901 59.8398 36.5001 62.6498C38.8401 64.9498 37.3501 66.6198 34.0401 64.5098C34.6301 66.5198 38.4601 67.2298 37.7401 70.3698C38.5001 73.1298 39.5701 72.1098 40.5001 71.9498C41.2301 74.6298 41.6401 72.6598 41.6801 71.3798C45.0201 72.0998 44.2401 74.0698 45.2801 75.4498C47.5801 76.4898 41.9901 68.4098 45.9401 73.0198C50.1001 76.7698 47.5001 78.3398 43.7701 77.7398C46.1301 77.5498 46.8901 80.9298 49.8401 80.8098C52.5301 82.0898 54.3601 87.0098 49.7201 84.9598C48.1101 83.5098 42.4101 81.7198 47.0701 84.4798C51.3701 86.4698 54.7801 87.6598 58.9301 90.1598C61.8901 92.2798 63.1801 94.6998 64.3001 95.1798C61.8101 96.3698 56.7901 94.2298 60.5201 93.5698C58.1901 93.1498 55.5801 91.9698 57.8101 94.8698C59.7001 96.4498 64.5201 96.2898 65.3901 96.4598C64.6601 98.0698 63.4001 98.1998 65.4201 98.3198C63.1701 99.5398 66.1401 99.7298 66.3501 100.42ZM61.7501 87.4198C60.3801 85.9898 60.0301 83.3098 61.5101 85.6398C62.2601 85.9398 63.9401 90.0198 61.7501 87.4198ZM76.7401 96.9398C77.5901 96.8798 76.7601 97.5898 76.7401 96.9398ZM59.5901 83.9098C60.0801 85.5798 59.5301 81.7398 59.5901 83.9098ZM58.1001 81.8998C60.2701 82.8498 56.3701 78.5798 58.1001 81.8998ZM40.0401 69.4398C41.0501 69.1698 40.5401 71.1698 40.0401 69.4398ZM54.4101 77.2298C55.1401 79.1898 55.0301 74.8998 54.4101 77.2298ZM44.2601 70.1698C45.7601 71.3798 43.5501 68.8798 44.2601 70.1698ZM52.9701 72.9598C51.3401 69.3098 54.1301 70.9598 53.3301 73.5598L52.9701 72.9598ZM37.9501 62.9498C37.2201 61.7498 36.0201 58.2298 36.4001 57.1598C36.7501 58.9098 40.1201 64.6898 38.0501 59.5498C35.7701 55.2498 40.7801 60.9498 41.3001 62.0198C41.5401 63.0898 39.8901 61.7298 41.0101 64.2298C38.9701 61.3798 39.8101 65.8098 37.9501 62.9498ZM33.3101 59.7498C34.3701 61.6598 33.5001 56.9598 33.3101 59.7498ZM35.3901 60.4698C37.0801 63.3998 36.3901 58.3598 35.3901 60.4698ZM30.3701 56.5798C28.6401 54.8598 27.3901 53.2798 30.4501 55.5098C31.6301 55.5598 27.8301 51.9098 30.7301 54.3498C33.7901 54.9098 32.2401 59.3598 30.3701 56.5798ZM33.0101 56.5098C34.0101 55.5198 33.5401 57.4898 33.0101 56.5098ZM34.6301 57.0298C36.4801 58.2298 33.1101 54.1798 34.6301 57.0298ZM31.4101 53.9498C26.3901 49.4798 37.7201 56.2898 32.2301 54.7798L31.4101 53.9498ZM45.8001 62.3098C43.6201 61.0098 45.2201 53.1298 45.9601 58.5198C48.0701 57.8398 45.8401 61.2998 47.4201 61.2698C47.1801 63.4498 46.4701 64.2398 45.8001 62.3098ZM51.1301 65.4598C51.5801 67.0798 51.3401 63.0798 51.1301 65.4598ZM50.2001 64.5398C50.4401 63.5298 50.2301 65.7398 50.2001 64.5398ZM32.3901 52.4798C29.1601 48.0298 41.7701 56.9898 34.4601 53.6098C33.6901 53.3998 32.7701 53.3298 32.3901 52.4798ZM42.6501 57.9098C43.3301 58.5298 42.3401 54.1598 42.6501 57.9098ZM50.4301 62.9098C51.0301 60.7698 50.4801 64.3198 50.4301 62.9098ZM32.8901 50.7798C34.8101 50.3698 40.8401 54.1498 35.3001 51.8598C34.6801 51.1698 33.3701 51.4798 32.8901 50.7798ZM49.3601 58.9898C49.5601 55.1498 50.5101 56.6998 49.3701 59.5398L49.3601 58.9898ZM34.3101 49.4398C35.0901 48.2898 32.2301 44.2598 34.7201 47.9898C35.8001 48.8398 37.8301 49.4198 36.0301 49.7798C38.8701 52.2798 35.3501 50.4598 34.3101 49.4398ZM48.5501 57.7898C49.0901 53.4198 49.0201 60.3498 48.5501 57.7898ZM32.6801 45.4098C33.2801 45.1498 33.0001 46.1998 32.6801 45.4098ZM36.3901 47.6198C38.1601 49.8498 37.3501 45.6098 36.3901 47.6198ZM46.8601 53.4398C47.0601 54.5598 46.8601 52.6698 46.8601 53.4398ZM46.2601 52.0998C47.6101 53.9998 44.8101 48.5098 46.2601 52.0998ZM45.3701 49.7498C46.2001 51.6098 45.1201 48.2698 45.3701 49.7498ZM46.8201 47.3898C45.8201 45.6298 48.0801 39.6398 48.3301 43.3598C47.2801 46.2498 48.0301 47.8698 48.7601 43.9898C50.1201 40.9298 48.4701 50.0098 46.8201 47.3898ZM48.3101 38.4798C48.7501 37.9498 48.4101 39.1298 48.3101 38.4798ZM45.8201 87.5998C45.8901 87.9298 45.2301 87.0798 45.8201 87.5998ZM50.9501 90.1998C53.8101 90.9398 53.7901 89.7598 51.2101 89.4098C49.8201 88.1198 45.4401 86.7498 49.3601 89.2498C49.6301 89.8998 50.4501 89.8798 50.9501 90.1998ZM40.8101 83.4598C42.3801 84.6398 46.7401 86.7798 43.0501 83.9098C44.2901 82.4698 40.6701 81.6998 41.8701 80.7298C38.8101 78.8598 39.4601 79.0298 41.6001 79.0898C37.9301 77.4498 42.1301 77.5698 41.9301 76.7298C40.5101 76.4498 34.9001 74.2298 38.2001 76.9098C34.8401 75.1998 37.4001 77.5498 36.3801 77.2998C32.9401 76.3598 39.4401 79.9198 35.8401 79.0298C37.8101 80.5898 41.1401 83.0298 36.6701 80.6798C36.1001 81.5298 39.8801 82.8198 40.8101 83.4598ZM46.1801 86.5498C52.7101 88.6498 42.9801 83.9698 46.1801 86.5498ZM73.6801 103.2C73.7601 101.9 72.7801 104.31 73.6801 103.2ZM76.5001 104.39C78.0101 102.93 76.5601 106.72 79.0001 104.03C79.0301 102.11 78.9301 100.97 76.2001 103.31C75.4501 103.73 75.1101 105.5 76.5001 104.39ZM31.6501 76.2198C31.1801 74.3998 28.4001 74.4098 31.6501 76.2198ZM34.6601 78.1998C33.5401 76.3398 30.6601 76.5198 34.6601 78.1998ZM51.8301 88.5498C53.5101 90.0398 59.5301 89.6398 53.8601 88.7298C53.0301 87.4898 48.5401 87.7898 51.8301 88.5498ZM75.4301 103.12C78.0001 100.96 72.9301 104.09 75.4301 103.12ZM80.7901 106.81C80.8101 106.12 79.6801 107.11 80.7901 106.81ZM80.8001 105.84C83.6601 102.81 78.0301 106.02 80.8001 105.84ZM24.2201 70.0098C21.7901 66.5398 22.7101 64.9798 20.3601 62.1398C19.9101 59.9698 16.3301 55.0498 18.5101 60.2598C20.5001 63.3098 21.0901 68.0298 24.2201 70.0098ZM79.9001 104.88C85.1601 101.48 77.7501 103.4 79.9001 104.88ZM83.9101 106.45C86.5501 104.19 82.2501 105.98 83.9101 106.45ZM30.7501 72.3798C31.5101 71.2598 28.8101 72.2398 30.7501 72.3798ZM83.0801 105.37C85.6301 103.73 82.4901 103.98 82.6201 105.52L83.0801 105.37ZM48.5001 83.5798C48.4101 82.4698 47.1501 83.6698 48.5001 83.5798ZM50.6401 84.8098C49.9501 83.4298 49.5901 85.0198 50.6401 84.8098ZM87.1701 106.48C90.4401 104.12 85.1901 106.03 86.4901 106.93L87.1701 106.48ZM85.9101 105.88C88.5801 103.65 83.1101 106.87 85.9101 105.88ZM92.3001 110.13C94.0901 108.94 90.1301 109.75 92.3001 110.13ZM32.3901 71.5698C34.7801 72.1098 41.9501 77.4598 37.7201 71.9398C35.5501 71.2998 36.8501 65.9998 34.6401 66.9398C36.1201 69.4198 35.8601 70.4698 32.7401 68.9098C28.8301 66.9998 30.5401 69.8498 31.3101 70.6398C30.2701 70.8898 32.7001 71.5498 32.3901 71.5698ZM21.4901 62.9598C21.9201 61.1898 17.5401 53.2098 19.4201 58.9598C20.1001 60.1698 20.0301 62.4498 21.4901 62.9598ZM41.5001 75.2998C41.4401 75.1498 40.2701 74.2698 41.5001 75.2998ZM44.5301 76.0098C44.5301 74.1298 41.1801 75.2398 44.5301 76.0098ZM70.8301 92.5798C70.3301 91.2998 68.8501 92.5598 70.8301 92.5798ZM72.0901 93.5098C71.9101 92.7898 71.3701 93.6498 72.0901 93.5098ZM82.5201 100.07C83.5201 99.3298 81.2701 99.9798 82.5201 100.07ZM26.9301 64.3498C29.8001 63.2398 23.8601 63.5598 26.9301 64.3498ZM68.5201 90.5498C68.4801 88.6898 66.6901 91.0098 68.5201 90.5498ZM25.8001 61.7098C27.6401 61.0898 24.0901 61.2998 25.8001 61.7098ZM31.1401 64.2998C31.1101 63.6898 30.5801 64.5298 31.1401 64.2998ZM96.3601 104.29C98.7301 103.81 104.13 105.5 105 103.66C102.12 103.59 95.0501 101.63 94.7201 104.12L95.3501 104.22L96.3601 104.29ZM32.8401 64.7298C32.8901 62.8498 31.3801 64.6598 32.8401 64.7298ZM18.7901 54.9798C18.1501 51.3998 16.3601 54.4398 18.7901 54.9798ZM22.1401 55.8198C22.1801 54.6698 19.0701 54.7898 22.1401 55.8198ZM24.0501 56.7598C23.6201 57.3298 23.5001 56.3198 24.0501 56.7598ZM36.1101 64.4898C36.6801 63.9698 34.7601 64.1098 36.1101 64.4898ZM22.7801 54.6398C22.4501 51.9298 18.9001 54.2398 22.7801 54.6398ZM15.9101 50.1798C15.8101 48.9298 15.2401 50.6498 15.9101 50.1798ZM16.9301 49.4098C16.7601 47.9298 16.0501 49.5998 16.9301 49.4098ZM22.5801 52.7798C24.9701 51.8398 18.2301 50.8398 22.0901 52.5998L22.5801 52.7798ZM98.1701 99.4698C99.7001 98.0698 96.2301 99.0398 98.1701 99.4698ZM107.3 104.21C107.91 102.4 105.76 104.44 107.3 104.21ZM23.1501 49.8198C23.4101 48.0698 21.2601 50.1698 23.1501 49.8198ZM15.1201 44.4398C14.6901 41.9698 14.7501 37.6198 18.8801 39.0898C13.3701 40.1898 22.7001 45.9398 21.5201 41.3998C23.8401 41.5098 26.0501 40.0298 24.8401 42.2798C29.4101 41.7798 32.5701 37.8198 36.9801 38.3698C40.4201 37.9098 44.1701 37.5698 47.8701 36.1898C50.9101 35.9698 53.8401 32.6898 52.1801 30.7498C48.0301 30.3998 43.6801 30.9198 39.1001 31.8298C34.0201 32.8898 29.4001 34.8898 24.2701 35.7598C19.2701 36.4298 25.2701 37.6098 23.8401 37.8698C21.2301 38.7698 26.9501 39.3898 23.5001 40.3398C21.3701 39.9298 19.1501 39.1998 20.0601 36.9598C15.2701 37.5798 11.0601 39.5698 14.8501 44.4398H15.1201ZM26.6601 38.5598C27.7801 34.4198 32.6701 41.9598 28.5001 39.1098C28.0001 38.7298 27.1801 38.4298 26.6601 38.5598ZM26.8801 36.5498C28.5001 35.3498 27.7401 37.2298 26.8801 36.5498ZM28.9401 36.5898C29.0901 34.6898 33.6501 37.5998 29.6901 37.2698L28.9401 36.5898ZM31.7501 35.4498C32.7801 34.2498 32.0501 36.5198 31.7501 35.4498ZM32.4701 34.9698C34.1801 32.9098 42.1601 33.6598 36.3201 34.7698C34.7601 33.5898 33.5601 35.4698 32.4701 34.9698ZM42.8901 33.3698C48.0701 35.3598 42.6301 27.7498 42.8901 33.3698ZM45.8501 33.3498C46.9301 30.5198 50.0501 32.2098 46.3501 32.7798C46.4301 33.0798 46.2401 34.2398 45.8501 33.3498ZM21.9901 48.3698C25.2201 46.3898 18.5601 46.6498 21.9901 48.3698ZM24.3801 49.0298C25.5101 47.8298 21.9201 48.5398 24.3801 49.0298ZM17.3401 44.0398C19.1901 42.6198 15.1601 43.4998 17.3401 44.0398ZM112.69 103.69C112.74 102.04 111.28 104.43 112.69 103.69ZM103 97.0798C103.28 95.1798 101.76 97.2398 103 97.0798ZM115.36 104.33C117.94 104.34 123.18 103.53 117.56 103.53C116.68 103.66 112.43 103.64 115.36 104.33ZM26.4801 47.8698C28.5701 47.7298 29.7501 45.5698 26.0701 45.6898C20.3801 45.0998 31.0901 47.6398 25.3401 46.9098C24.5701 47.4198 26.4301 48.0098 26.4801 47.8698ZM28.3201 48.7998C28.1001 47.4598 27.6701 49.5098 28.3201 48.7998ZM30.5001 42.9798C31.4001 41.8598 29.2401 42.6798 30.5001 42.9798ZM23.5501 31.3798C27.2801 30.1098 32.3701 28.6898 34.1301 31.9998C32.3401 29.8498 33.4101 27.7198 35.1001 30.8798C37.4901 34.0698 38.6901 29.4298 37.1301 28.3598C38.9001 30.5598 40.9201 31.5998 38.3201 28.4998C41.1501 25.0998 32.6601 28.9498 30.7301 28.9098C29.8101 29.3198 21.1501 31.1098 23.5501 31.3798ZM25.7401 27.1998C27.8701 25.5998 33.0901 28.1598 29.7401 25.6098C29.4101 25.3098 22.3901 27.5398 25.7401 27.1998ZM33.4901 27.5198C35.9801 27.5798 32.4201 24.1798 35.3801 25.7198C34.8901 24.1298 31.9301 23.8298 30.4801 23.1998C29.6601 24.6498 32.1401 27.5398 33.4901 27.5198ZM27.1001 20.4798C27.9601 19.3198 25.5901 21.0798 27.1001 20.4798ZM30.2601 21.2398C34.2701 20.7098 29.2401 19.5198 29.4501 21.1998L30.2601 21.2398ZM24.3501 16.6198C21.5301 12.9298 29.6601 17.2398 26.7901 13.3798C24.3801 11.4598 22.0601 15.5398 24.3501 16.6198ZM60.5601 36.1198C61.8501 33.8298 55.2201 33.0298 59.6901 35.3098C60.1101 35.4498 60.0101 36.2798 60.5601 36.1198Z" fill="#7C4B4B"/>
</svg>
