<svg width="128" height="128" viewBox="0 0 128 128" fill="none" xmlns="http://www.w3.org/2000/svg">
<path fill-rule="evenodd" clip-rule="evenodd" d="M47.955 69H63.326C60.68 60 58.074 51.68 55.51 43.224C53.022 51.71 50.498 60 47.955 69ZM124.112 1H2.87303C0.687027 1 1.00003 1.476 1.00003 3.585V124.979C1.00003 127.086 0.687027 127 2.71903 127H124.266C126.297 127 127 127.086 127 124.978V3.739C127 1.476 126.298 1 124.112 1ZM77.298 96C75.661 96 74.018 95.867 72.389 95.984C71.214 96.072 70.821 95.578 70.508 94.558C68.994 89.627 67.385 84.698 65.87 79.768C65.565 78.776 65.129 78.414 64.054 78.427C58.531 78.491 53.005 78.485 47.481 78.42C46.318 78.406 45.783 78.716 45.451 79.87C44.045 84.774 42.507 89.638 41.086 94.537C40.778 95.599 40.31 95.97 39.182 95.941C35.864 95.858 32.541 95.909 28.908 95.909C29.867 92.864 30.737 90.048 31.637 87.244C37.151 70.044 42.684 52.844 48.158 35.633C48.54 34.435 49.071 34.066 50.301 34.093C54.187 34.179 58.076 34.115 61.964 34.093C62.691 34.088 63.187 34.131 63.453 34.957C69.958 55.073 76.486 75.313 83.008 95.427C83.036 95.518 83.018 96 83.033 96H77.298ZM98 96H86V51H98V96ZM91.65 44.929C87.985 44.924 85.361 42.401 85.336 38.859C85.312 35.327 88.043 32.7 91.742 32.696C95.47 32.692 98.097 35.233 98.126 38.867C98.152 42.412 95.459 44.935 91.65 44.929Z" fill="#7C4B4B"/>
</svg>
