<svg width="128" height="128" viewBox="0 0 128 128" fill="none" xmlns="http://www.w3.org/2000/svg">
<path fill-rule="evenodd" clip-rule="evenodd" d="M113.823 104.595C112.028 103.117 110.194 101.674 108.515 100.07C106.645 98.2852 105.47 96.1262 105.726 93.3922C105.873 91.8192 105.51 90.4662 103.613 89.9402C104.059 88.7862 104.477 88.0122 104.646 87.1872C104.834 86.2672 104.824 85.3002 104.85 84.3532C105.114 74.3932 101.516 65.6622 96.1869 57.5182C93.7329 53.7702 91.1699 50.0892 88.5539 46.4522C84.4619 40.7642 82.9949 34.3742 82.9209 27.4712C82.8789 24.2846 82.5168 21.1103 81.8399 17.9962C80.5269 11.9562 77.2909 7.23318 71.4219 4.70018C66.9249 2.75818 62.2699 2.37318 57.5209 3.61618C50.6199 5.42118 46.4469 10.5502 46.5249 17.7042C46.5989 24.5892 46.9419 31.4832 47.4469 38.3522C47.7349 42.2452 47.1349 45.6042 44.5519 48.6922C42.0679 51.6612 39.8459 54.8642 37.6939 58.0892C36.4649 59.9332 35.3769 61.9422 34.6169 64.0202C32.5469 69.6832 30.6439 75.3932 27.3409 80.5202C26.1169 82.4202 25.9779 84.5462 26.8469 86.7192C27.0719 87.2822 27.2099 88.1482 26.9359 88.6012C24.5819 92.5082 21.9249 95.9462 16.8699 96.6962C12.8939 97.2872 12.6979 98.0102 12.8189 102.109C12.9189 105.446 12.8799 108.814 12.5389 112.13C12.1759 115.685 12.5469 116.651 15.9809 117.503C23.9049 119.471 31.8939 121.15 39.4729 124.357C42.6999 125.722 45.9379 125.248 48.5369 122.594C51.2499 119.823 54.6779 118.739 58.3809 118.735C64.6659 118.73 70.9529 119.033 77.2409 119.104C78.9429 119.124 79.9199 119.757 80.6049 121.303C81.4449 123.196 82.8649 124.587 85.0499 124.829C89.2429 125.291 93.0629 124.669 96.2399 121.47C100.158 117.522 104.676 114.404 109.855 112.243C111.337 111.624 112.733 110.651 113.958 109.595C116.189 107.673 116.071 106.449 113.823 104.595ZM62.4259 24.1202C63.1839 21.5192 64.9629 19.8312 67.6689 19.3192C69.9449 18.8892 71.8719 20.0072 73.3079 22.5652C74.8539 25.3232 75.3619 28.2052 74.0419 31.2232C72.9589 33.6972 72.4509 33.9302 69.9189 33.0912C69.4449 32.9342 68.9819 32.7482 68.1419 32.4392C68.8499 31.8452 69.2959 31.4042 69.8059 31.0572C70.9399 30.2852 71.2579 29.1992 71.1519 27.9092C71.0129 26.2152 69.6809 24.7152 68.3149 24.7342C67.0899 24.7512 66.0529 25.9012 65.9149 27.6492C65.8289 28.7382 66.0099 29.8482 66.0879 31.2382C62.6419 30.2152 61.3769 27.7132 62.4259 24.1202ZM49.6759 21.8692C50.9499 19.9412 52.8729 19.5552 54.7769 20.8452C56.8059 22.2212 58.3239 26.1012 57.5399 28.4212C57.2549 29.2652 56.4129 29.9212 55.8239 30.6622L55.2199 30.2882C54.9899 29.0352 54.9439 27.7032 54.4629 26.5552C54.1589 25.8272 53.2059 25.3712 52.5439 24.7932C51.9219 25.5322 50.8509 26.2362 50.7869 27.0212C50.6989 28.1052 51.2639 29.3012 51.7559 30.3522C52.0669 31.0132 52.7569 31.4972 53.4689 32.2682L51.5469 33.7782C48.5289 31.0782 47.6319 24.9582 49.6759 21.8692ZM87.3399 86.0752C87.1369 88.6792 86.8399 88.7882 84.2219 89.1732C82.3629 89.4452 81.8629 89.9292 81.7689 92.1372C81.6664 94.7204 81.6624 97.3066 81.7569 99.8902C81.8179 101.66 81.2199 103.048 80.0019 104.283C73.2379 111.139 65.1569 114.388 55.4899 113.209C51.3199 112.7 48.5939 110.162 46.3929 106.57C47.3729 106.207 48.0979 105.963 48.8049 105.676C51.9269 104.406 52.5109 101.721 50.0179 99.3992C48.1339 97.6422 46.0319 96.1162 44.0109 94.5072C42.0569 92.9522 40.0769 91.4292 38.1199 89.8782C36.4519 88.5552 35.8149 86.8502 35.7749 84.6902C35.6809 79.5082 36.7469 74.6602 38.9129 69.9432C40.8449 65.7342 42.3419 61.3262 44.1519 57.0582C45.0869 54.8562 46.0579 52.6032 47.4299 50.6702C48.7489 48.8162 49.5639 47.0012 49.4179 44.7302C49.3339 43.4542 49.4019 42.1682 49.4019 40.8872L50.1089 40.5352C51.2499 41.5202 52.4109 42.4842 53.5319 43.4942C57.5769 47.1402 61.4239 47.3072 65.8509 44.1642C67.7389 42.8232 69.7809 41.6942 71.7779 40.5122C72.2749 40.2182 72.8699 40.0892 73.7119 39.7742C75.8629 44.8402 77.9739 49.8072 80.0869 54.7742C81.1589 57.2982 82.0189 59.9412 83.3509 62.3212C86.0219 67.0962 87.4429 72.1342 87.4209 77.5932C87.4089 80.4232 87.5579 83.2632 87.3399 86.0752Z" fill="#7C4B4B"/>
</svg>
