<svg width="128" height="128" viewBox="0 0 128 128" fill="none" xmlns="http://www.w3.org/2000/svg">
<g clip-path="url(#clip0_370_14476)">
<path d="M117.688 98.2418C110.715 98.0508 105.391 98.7028 100.836 100.621C99.5429 101.168 97.4809 101.18 97.2699 102.801C97.9809 103.547 98.0899 104.66 98.6569 105.578C99.7429 107.332 101.579 109.691 103.216 110.93C105.005 112.278 106.849 113.723 108.767 114.891C112.181 116.973 115.99 118.161 119.271 120.243C121.209 121.473 123.13 123.02 125.021 124.407C125.955 125.091 126.584 126.157 127.794 126.587V126.392C127.157 125.58 126.993 124.462 126.407 123.615L123.829 121.037C121.309 117.693 118.11 114.756 114.712 112.318C112.001 110.369 105.931 107.74 104.802 104.588L104.603 104.389C106.525 104.17 108.775 103.475 110.552 102.998C113.532 102.201 116.197 102.408 119.271 101.611L123.435 100.424V99.6308C121.88 98.0368 120.771 95.9238 119.076 94.4788C114.635 90.6978 109.791 86.9238 104.803 83.7758C102.037 82.0298 98.6189 80.8928 95.6859 79.4128C94.6979 78.9168 92.9669 78.6548 92.3149 77.8268C90.7759 75.8658 89.9359 73.3778 88.7489 71.0888C86.2609 66.2958 83.8189 61.0658 81.6119 56.0228C80.1079 52.5858 79.1279 49.1948 77.2529 46.1128C68.2529 31.3158 58.5659 22.3828 43.5579 13.6048C40.3629 11.7378 36.5189 10.9998 32.4559 10.0348L25.9129 9.63984C24.5809 9.08484 23.1979 7.45584 21.9479 6.66284C16.9769 3.51984 4.22294 -3.31216 0.538936 5.67184C-1.78506 11.3398 4.01594 16.8708 6.08994 19.7458C7.54694 21.7578 9.40994 24.0188 10.4489 26.2848C11.1369 27.7768 11.2539 29.2688 11.8399 30.8438C13.2779 34.7268 14.5349 38.9528 16.3989 42.5388C17.3399 44.3548 18.3789 46.2658 19.5709 47.8908C20.2979 48.8868 21.5509 49.3288 21.7509 50.8638C20.5239 52.5788 20.4539 55.2388 19.7669 57.4068C16.6689 67.1768 17.8409 79.3168 22.3449 86.5438C23.7279 88.7668 26.9859 93.5238 31.4619 91.6998C35.3799 90.1018 34.5049 85.1608 35.6259 80.7978C35.8799 79.8098 35.7239 79.0828 36.2199 78.4188V78.6178L39.7899 85.7508C42.4309 90.0048 47.1139 94.4498 51.0869 97.4498C53.1459 99.0048 54.7669 101.692 57.4309 102.602V102.403H57.2319C56.7159 101.598 55.9079 101.266 55.2519 100.622C53.7009 99.0988 51.9749 97.2078 50.6929 95.4658C47.0799 90.5638 43.8879 85.1958 40.9819 79.6108C39.5909 76.9428 38.3839 74.0018 37.2119 71.2868C36.7589 70.2398 36.7669 68.6538 35.8249 68.1148C34.5439 70.1028 32.6529 71.7128 31.6609 74.0598C30.0789 77.8138 29.8719 82.3958 29.2859 87.1418C28.9379 87.2668 29.0909 87.1808 28.8879 87.3408C26.1259 86.6728 25.1579 83.8328 24.1299 81.3918C21.5359 75.2278 21.0519 65.3018 23.3369 58.2008C23.9269 56.3648 26.5989 50.5838 25.5169 48.8848C25.0009 47.1938 23.2979 46.2128 22.3449 44.9198C21.1649 43.3218 19.9899 41.2168 19.1729 39.3688C17.0479 34.5638 16.0599 29.1658 13.8209 24.3068C12.7509 21.9828 10.9459 19.6308 9.46194 17.5688C7.81694 15.2798 5.97794 13.5918 4.70394 10.8268C4.25094 9.84284 3.63794 8.26784 4.30594 7.26084C4.52094 6.57684 4.82194 6.29184 5.49694 6.06984C6.64494 5.18284 9.84894 6.36684 11.0439 6.86284C14.2239 8.18284 16.8759 9.44084 19.5709 11.2258C20.8599 12.0808 22.1689 13.7378 23.7309 14.1988H25.5159C28.3049 14.8398 31.4299 14.3938 34.0389 15.1868C38.6479 16.5888 42.7769 18.7688 46.5269 21.1358C57.9489 28.3508 67.2929 38.6158 73.6829 50.8698C74.7099 52.8428 75.1559 54.7218 76.0619 56.8148C77.8859 61.0338 80.1869 65.3738 82.0029 69.5028C83.8189 73.6158 85.5849 77.7728 88.1509 81.1978C89.4989 82.9988 94.7019 83.9638 97.0689 84.9638C98.7289 85.6628 101.448 86.3938 103.018 87.3428C106.018 89.1518 108.924 91.3078 111.741 93.2878C113.143 94.2798 117.471 96.4558 117.686 98.2448L117.688 98.2418ZM29.0829 22.7218C27.6299 22.6948 26.6029 22.8778 25.5169 23.1168V23.3158H25.7119C26.4069 24.7378 27.6299 25.6558 28.4889 26.8818L30.4689 31.0458L30.6679 30.8508C31.8949 29.9838 32.4569 28.6008 32.4489 26.4878C31.9569 25.9678 31.8869 25.3238 31.4569 24.7028C30.8949 23.8788 29.7969 23.4138 29.0819 22.7228L29.0829 22.7218Z" fill="#7C4B4B"/>
</g>
<defs>
<clipPath id="clip0_370_14476">
<rect width="128" height="128" fill="white"/>
</clipPath>
</defs>
</svg>
