<svg width="128" height="128" viewBox="0 0 128 128" fill="none" xmlns="http://www.w3.org/2000/svg">
<path d="M64 30.332C28.654 30.332 0 45.407 0 64C0 82.593 28.654 97.668 64 97.668C99.345 97.668 128 82.593 128 64C128 45.407 99.346 30.332 64 30.332ZM58.018 40.142H65.311V40.145L63.566 49.113H70.062C74.149 49.113 76.97 49.827 78.52 51.252C80.073 52.679 80.537 54.989 79.918 58.182L76.865 73.882H69.457L72.359 58.953C72.689 57.255 72.567 56.098 71.994 55.48C71.421 54.863 70.201 54.555 68.336 54.555H62.508L58.752 73.88H51.461L58.018 40.142ZM26.73 49.114H40.863C45.115 49.114 48.218 50.23 50.168 52.462C52.118 54.694 52.704 57.808 51.926 61.808C51.606 63.457 51.063 64.962 50.301 66.328C49.538 67.692 48.541 68.941 47.311 70.073C45.843 71.446 44.213 72.426 42.42 73.009C40.626 73.594 38.34 73.884 35.562 73.884H29.268L27.523 82.854H20.173L26.73 49.114ZM84.096 49.114H98.226C102.478 49.114 105.579 50.23 107.529 52.462H107.531C109.481 54.694 110.069 57.808 109.291 61.808C108.971 63.457 108.43 64.962 107.668 66.328C106.905 67.692 105.908 68.941 104.676 70.073C103.209 71.446 101.578 72.426 99.783 73.009C97.989 73.594 95.706 73.884 92.928 73.884H86.633L84.889 82.854H77.539L84.096 49.114ZM33.045 54.439L30.303 68.559H34.771C37.734 68.559 39.943 68.003 41.393 66.886C42.843 65.77 43.821 63.905 44.33 61.294C44.815 58.787 44.594 57.015 43.664 55.985C42.734 54.953 40.874 54.438 38.08 54.438L33.045 54.439ZM90.408 54.439L87.664 68.559H92.134C95.099 68.559 97.304 68.003 98.756 66.886C100.205 65.77 101.183 63.905 101.691 61.294C102.178 58.787 101.957 57.015 101.027 55.985C100.097 54.953 98.235 54.438 95.443 54.438L90.408 54.439Z" fill="#7C4B4B"/>
</svg>
