<svg width="128" height="128" viewBox="0 0 128 128" fill="none" xmlns="http://www.w3.org/2000/svg">
<g clip-path="url(#clip0_370_14478)">
<path d="M115.95 2.78107C110.446 -2.12493 103.79 -0.151926 97.2121 5.68307C96.1993 6.59317 95.2257 7.54603 94.2941 8.53907C83.0481 20.4691 72.6101 42.5591 69.3681 59.4341C70.6301 61.9971 71.6181 65.2661 72.2701 67.7621C72.5951 69.0001 72.8871 70.2501 73.1451 71.5081C73.1451 71.5081 73.0441 71.1291 72.6301 69.9301L72.3641 69.1531C72.3095 69.0094 72.2508 68.8674 72.1881 68.7271C71.4541 67.0201 69.4271 63.4181 68.5321 61.8521C67.8229 63.9291 67.1534 66.0195 66.5241 68.1221C69.1061 72.8361 70.6731 80.9221 70.6731 80.9221C70.6731 80.9221 70.5401 80.3951 69.8911 78.5671C69.3211 76.9501 66.4541 71.9301 65.7741 70.7581C64.6141 75.0481 64.1541 77.9381 64.5671 78.6411C65.3801 80.0041 66.1451 82.3641 66.8171 84.9651C68.3451 90.8331 69.4031 97.9811 69.4031 97.9811L69.4971 99.1731C69.2941 104.059 69.3951 108.954 69.7941 113.829C70.3021 119.942 71.2511 125.188 72.4621 128.001L73.2861 127.551C71.5051 122.016 70.7821 114.759 71.1021 106.396C71.5791 93.6061 74.5241 78.1811 79.9581 62.1061C89.1491 37.8451 101.896 18.3731 113.56 9.07207C102.93 18.6731 88.5371 49.7671 84.2281 61.2751C79.4041 74.1621 75.9901 86.2521 73.9301 97.8401C77.4851 86.9771 88.9731 82.3131 88.9731 82.3131C88.9731 82.3131 94.6101 75.3591 101.196 65.4301C97.2511 66.3281 90.7701 67.8711 88.5981 68.7811C85.3981 70.1211 84.5351 70.5781 84.5351 70.5781C84.5351 70.5781 94.9061 64.2661 103.805 61.4061C116.039 42.1361 129.371 14.7611 115.95 2.78107ZM16.8961 5.68107C11.4981 5.70107 7.12608 10.0711 7.11108 15.4701V104.044C7.12708 109.442 11.5011 113.809 16.8961 113.829H67.1231C66.7477 109.026 66.6552 104.205 66.8461 99.3911C66.8151 99.0591 66.7871 98.6371 66.7601 98.3241C66.1107 94.0602 65.2688 89.8279 64.2371 85.6401C63.5921 83.1331 62.7721 80.8511 62.2721 80.0041C61.6511 78.9531 61.7481 78.3511 61.7521 77.6991C61.7521 77.0591 61.8341 76.3941 61.9521 75.6401C62.2681 73.7621 62.6821 71.9021 63.1981 70.0661L64.3541 69.9181C64.2641 69.7301 64.2801 69.5701 64.1901 69.4021L63.9711 67.3711C64.6111 65.2341 65.2871 63.1091 66.0111 61.0001L67.0771 60.8981C67.0341 60.8161 67.0221 60.6951 66.9791 60.6181L66.7491 58.9331C70.1121 41.4371 80.5491 19.2341 92.3501 6.71407C92.7021 6.34407 93.0611 6.03107 93.4051 5.67907L16.8961 5.68107Z" fill="#7C4B4B"/>
</g>
<defs>
<clipPath id="clip0_370_14478">
<rect width="128" height="128" fill="white"/>
</clipPath>
</defs>
</svg>
