<svg width="32" height="15" viewBox="0 0 32 15" fill="none" xmlns="http://www.w3.org/2000/svg">
<path d="M31.7393 1.52344L17.9878 14.4434C17.5967 14.8145 16.9233 15 15.9674 15C15.055 15 14.4033 14.8145 14.0122 14.4434L0.260692 1.52344C0.0868971 1.38672 -6.02312e-07 1.2207 -6.1085e-07 1.02539C-6.29632e-07 0.595704 0.434488 0.29297 1.30346 0.117189C1.6076 0.0390637 1.95519 1.1552e-06 2.34623 1.13811e-06C3.25866 1.09822e-06 3.93211 0.195313 4.3666 0.585938L15.5764 11.1035C15.6633 11.2012 15.7936 11.25 15.9674 11.25C16.0978 11.25 16.2281 11.2012 16.3585 11.1035L27.6334 0.585937C28.0679 0.195312 28.7414 -1.5661e-08 29.6538 -5.55444e-08C30.349 -8.59316e-08 30.9138 0.107422 31.3483 0.322265C31.7828 0.537109 32 0.78125 32 1.05469C32 1.23047 31.9131 1.38672 31.7393 1.52344Z" fill="#F5EBDD"/>
</svg>
