<svg width="249" height="256" viewBox="0 0 249 256" fill="none" xmlns="http://www.w3.org/2000/svg">
<path d="M99.1248 76.5622C115.046 82.337 134.163 70.1973 141.828 49.4496C149.49 28.7013 142.795 7.20586 126.877 1.43463C110.952 -4.33211 91.8372 7.80404 84.1719 28.5518C76.5102 49.3 83.2046 70.7955 99.1248 76.5622Z" fill="#7C4B4B"/>
<path d="M39.3923 109.914C55.8537 108.479 67.6762 89.6778 65.8053 67.9064C63.9305 46.1424 49.0655 29.6595 32.6041 31.086C16.1442 32.5251 4.32224 51.3297 6.19509 73.0977C8.07043 94.8617 22.9329 111.344 39.3923 109.914Z" fill="#7C4B4B"/>
<path d="M167.825 108.73C182.245 117.177 202.966 108.694 214.11 89.7909C225.255 70.8757 222.598 48.711 208.176 40.2645C193.755 31.8255 173.03 40.3127 161.888 59.2156C150.744 78.1273 153.404 100.291 167.825 108.73Z" fill="#7C4B4B"/>
<path d="M244.839 131.856C235.497 118.346 213.449 117.302 195.59 129.53C177.726 141.766 170.823 162.632 180.163 176.145C189.503 189.654 211.552 190.699 229.412 178.466C247.27 166.234 254.177 145.369 244.839 131.856Z" fill="#7C4B4B"/>
<path d="M149.121 134.036C147.331 121.651 139.735 110.355 127.594 104.626C115.455 98.9011 101.902 100.223 91.201 106.71C79.3736 113.885 71.8077 123.257 61.6209 127.354C51.4355 131.451 22.9062 119.25 5.14346 151.492C-7.40179 174.265 4.11457 203.054 27.633 214.147C45.5087 222.578 59.6566 221.637 70.043 226.533C80.428 231.429 88.6951 242.947 106.569 251.378C130.087 262.471 159.639 253.059 169.251 228.9C182.859 194.699 155.297 180.442 151.983 169.978C148.672 159.516 151.102 147.719 149.121 134.036Z" fill="#7C4B4B"/>
</svg>
