<svg width="200" height="200" viewBox="0 0 200 200" fill="none" xmlns="http://www.w3.org/2000/svg">
<path d="M85.9982 199.247L112.248 199.247L116.247 165L82 165L85.9982 199.247Z" fill="#D8A39D"/>
<path d="M86.19 0L112.44 7.48482e-07L116.438 34.2466L82.1918 34.2466L86.19 0Z" fill="#D8A39D"/>
<path d="M19.632 160.222L38.1936 178.784L65.2368 157.395L41.0209 133.179L19.632 160.222Z" fill="#D8A39D"/>
<path d="M160.656 19.4693L179.218 38.0308L157.829 65.0741L133.613 40.8581L160.656 19.4693Z" fill="#D8A39D"/>
<path d="M0.165588 85.7546L0.165588 112.005L34.4122 116.003L34.4122 81.7563L0.165588 85.7546Z" fill="#D8A39D"/>
<path d="M199.412 85.9465L199.412 112.196L165.166 116.195L165.166 81.9482L199.412 85.9465Z" fill="#D8A39D"/>
<path d="M39.2452 19.4112L20.6837 37.9727L42.0724 65.016L66.2884 40.8L39.2452 19.4112Z" fill="#D8A39D"/>
<path d="M179.998 160.436L161.437 178.997L134.393 157.608L158.609 133.392L179.998 160.436Z" fill="#D8A39D"/>
<path d="M147.954 147.922C121.206 174.67 77.8383 174.67 51.09 147.922C24.3418 121.174 24.3418 77.8065 51.09 51.0582C77.8383 24.31 121.206 24.31 147.954 51.0583C174.702 77.8065 174.702 121.174 147.954 147.922ZM112.599 111.599C119.286 104.912 119.286 94.0688 112.599 87.3817C105.912 80.695 95.0693 80.6955 88.3823 87.3824C81.6957 94.0694 81.6957 104.911 88.3823 111.598C95.0693 118.285 105.912 118.285 112.599 111.599Z" fill="#D8A39D"/>
</svg>
